<svg xmlns="http://www.w3.org/2000/svg" fill="none" viewBox="0 0 154 152">
  <path fill="#FFED00" d="M124.753 19.3497c.564.5276 1.123 1.0644 1.669 1.6147 6.856 6.8589 12.244 14.8503 16.004 23.7468 3.897 9.2104 5.87 18.9939 5.87 29.0821s-1.973 19.8716-5.87 29.0817c-3.76 8.897-9.148 16.888-16.004 23.747-6.857 6.859-14.846 12.249-23.739 16.01-9.2077 3.898-18.988 5.872-29.0728 5.872-8.9573 0-17.6781-1.564-25.9715-4.644 9.6756 4.681 20.5289 7.3 31.996 7.3 40.6533 0 73.6083-32.966 73.6083-73.6326 0-23.6558-11.153-44.7055-28.49-58.1777Z"/>
  <path fill="#FFED00" d="M147.218 73.7933c0-25.1796-12.635-47.4027-31.91-60.6838-10.566-5.87194-22.7291-9.21497-35.674-9.21497-40.6532 0-73.60861 32.96627-73.60861 73.63297 0 25.1795 12.63571 47.4025 31.90971 60.6835 10.5668 5.872 22.7296 9.215 35.6744 9.215 40.6535 0 73.6085-32.966 73.6085-73.6327ZM18.9521 77.5275c0-16.2148 6.3109-31.4563 17.7735-42.9181C48.1882 23.1431 63.4246 16.83 79.6295 16.83s31.4455 6.3131 42.9035 17.7794c11.463 11.4664 17.774 26.7078 17.774 42.9181 0 16.2102-6.311 31.4565-17.774 42.9185-11.462 11.466-26.6986 17.779-42.9035 17.779-16.2049 0-31.4459-6.313-42.9039-17.779-11.4626-11.467-17.7735-26.7083-17.7735-42.9185Z"/>
  <path fill="#FFED00" d="M73.6087.1604C32.9554.1604 0 33.1267 0 73.7933 0 114.46 32.9554 147.426 73.6087 147.426s73.6083-32.966 73.6083-73.6327c0-40.6666-32.955-73.6329-73.6083-73.6329Zm1.6686 126.1256c-28.6495 0-51.9566-23.315-51.9566-51.9742 0-28.659 23.3071-51.9737 51.9566-51.9737 28.6497 0 51.9567 23.3147 51.9567 51.9737 0 28.6592-23.307 51.9742-51.9567 51.9742Z"/>
  <path fill="#FFED00" d="M75.2773 29.3561c-24.7802 0-44.9409 20.1673-44.9409 44.9557s20.1607 44.9562 44.9409 44.9562c24.7807 0 44.9407-20.1678 44.9407-44.9562 0-24.7884-20.16-44.9557-44.9407-44.9557Zm22.7978 66.5603H76.4777V74.3118H54.9893l13.2632 21.6046H41.6853l13.2631-21.6046v-21.6c11.9264 0 21.5975 9.6698 21.5975 21.6046h21.5292V95.921v-.0046Zm1.1822-21.6637c-6.8612.7277-12.6129-5.0304-11.89-11.8938.5275-4.9987 4.5469-9.0194 9.5484-9.5515 6.8613-.7278 12.6173 5.0304 11.8903 11.8938-.532 4.9986-4.547 9.0193-9.5487 9.5515Z"/>
</svg>