<svg xmlns="http://www.w3.org/2000/svg" fill="none" viewBox="0 0 113 112">
  <path fill="#FFED00" d="M92.0369 14.6997c.4136.3891.8249.7838 1.2284 1.1875 5.0445 5.0461 9.0047 10.922 11.7697 17.4642 2.865 6.7749 4.317 13.9701 4.317 21.3867 0 7.4167-1.452 14.613-4.317 21.3867-2.766 6.5423-6.7263 12.4181-11.7697 17.4643-5.0445 5.0462-10.9184 9.0079-17.4585 11.7739-6.7726 2.866-13.9654 4.318-21.3796 4.318-6.5882 0-13.002-1.149-19.1005-3.416 7.1146 3.441 15.0966 5.37 23.528 5.37 29.897 0 54.1323-24.2449 54.1323-54.1507 0-17.3983-8.204-32.8779-20.9512-42.7846h.0011Z"/>
  <path fill="#FFED00" d="M108.562 54.7381c0-18.5176-9.2945-34.8615-23.4679-44.6262-7.7719-4.31713-16.7163-6.77816-26.2364-6.77816-29.897 0-54.1326 24.24466-54.1326 54.15046 0 18.5176 9.2943 34.8614 23.4676 44.6258 7.7719 4.318 16.7163 6.779 26.2364 6.779 29.8971 0 54.1329-24.2451 54.1329-54.1509Zm-94.328 2.7461c0-11.9227 4.641-23.1321 13.0701-31.5629 8.428-8.4308 19.6337-13.0744 31.5525-13.0744 11.9188 0 23.1245 4.6425 31.5525 13.0744 8.428 8.4308 13.0699 19.6402 13.0699 31.5629 0 11.9228-4.6408 23.1321-13.0699 31.5629-8.428 8.4308-19.6337 13.0749-31.5525 13.0749-11.9188 0-23.1245-4.643-31.5525-13.0749-8.428-8.4308-13.0701-19.6401-13.0701-31.5629Z"/>
  <path fill="#FFED00" d="M53.5744 46.4975c-1.3492-.7212-2.752-1.4513-4.1782-2.168-.047.4987-.0917 1.0063-.1364 1.5262 0 0-.0414 1.1875-.066 3.1565.7355-.4383 1.4811-.8743 2.2378-1.3082.7176-.4115 1.433-.814 2.1439-1.2076l-.0011.0011Zm-3.946 19.7573c.2046 2.896.4963 5.7897.9076 8.4476 1.2464.0749 2.2356 1.1449 2.2356 2.4532 0 .9627-.5354 1.7957-1.3145 2.1994.1386.5467.285 1.0723.4404 1.5709 0 0 .9892 4.2613 2.9688 6.5557 0 0 .4918.492.9825-.1632 0 0 2.3082-1.968 3.9569-11.3089 0 0 .7132-4.0947 1.2531-9.6686-1.8768-.9102-3.8061-1.8997-5.77-2.9642-1.9248 1.0321-3.8183 1.9937-5.6593 2.8792l-.0011-.0011Zm11.5151-23.6675c-.437-4.5307-1.2631-10.1438-2.8156-15.9078 0 0-1.2251-4.3317-2.6872-5.3671-.2436-.1733-.5756-.1464-.788.0638-.9468.9359-3.616 4.9545-5.2848 21.1955 1.8767.9101 3.806 1.8997 5.7699 2.9642 1.9762-1.06 3.9178-2.0451 5.8057-2.9486Zm-9.7319 18.6139c-.711-.4126-1.4129-.8263-2.1059-1.2422.0514 1.5106.1229 3.0715.2168 4.6459 1.367-.6385 2.7933-1.3317 4.2353-2.0697-.778-.4327-1.5605-.8778-2.3451-1.3328l-.0011-.0012Zm5.5674-14.7617c.7444.416 1.4922.8409 2.2434 1.277.7958.4618 1.5805.9258 2.3529 1.392-.0458-1.3372-.1319-2.9955-.2862-4.8918-.4996.227-1.0093.4618-1.5302.7044 0 0-1.0541.558-2.7799 1.5184Zm-13.3813 8.0597c1.2496.8732 2.5787 1.7711 3.9558 2.6589-.0157-.89-.0235-1.7902-.0235-2.6981 0-.8341.0067-1.6604.0201-2.48-1.2944.8028-2.6234 1.6481-3.9524 2.5203v-.0011Zm3.9967-4.5198c.0626-2.1983.1721-4.3328.3219-6.3824-4.8556-2.3716-9.8532-4.477-13.7855-5.3726 0 0-4.1816-1.2814-7.1571-.719 0 0-.6718.1822-.3543.937l.0022.0078s.3957 2.1614 4.9942 6.578c.3957-.3041.8853-.4841 1.4163-.4841 1.3122 0 2.3752 1.1002 2.3752 2.4588 0 .4081-.0961.7927-.2671 1.1315 1.1837.9616 3.7467 3.0011 7.0151 5.3448 1.7225-1.1651 3.54-2.3358 5.4391-3.4987v-.0011Zm-5.3847 5.4424c-4.4834 3.0145-8.808 6.2862-11.5533 9.2403 0 0-3.1979 2.9798-4.2028 5.8378 0 0-.1856.6731.6338.7771 0 0 2.8536 1.0242 11.7746-2.1915 0 0 3.9301-1.4268 9.0551-3.7447-.1521-2.063-.2616-4.212-.3242-6.426-1.879-1.1617-3.6786-2.3313-5.3843-3.4941l.0011.0011Zm14.5882 7.1351c1.187.634 2.6737 1.3955 4.4051 2.2173.1352-1.5721.2515-3.2337.3331-4.9344-.7702.4596-1.5515.9169-2.344 1.372-.8014.4596-1.5995.9079-2.3931 1.3451h-.0011Zm26.9687-24.9636c-.8618-.237-3.3264-.4607-9.3993 1.4458-.1822 1.1696-1.1625 2.0641-2.3451 2.0641-.6394 0-1.2184-.2617-1.6454-.6855-2.2009.8208-4.7416 1.8573-7.6712 3.1622.1509 2.0618.2615 4.2075.3241 6.4192 1.9282 1.1931 3.7725 2.3928 5.5173 3.587 3.7021-2.6321 8.1397-6.133 12.3459-10.3339 0 0 3.1543-3.218 3.3175-5.0014.0313-.2986-.1576-.5747-.446-.6552l.0022-.0023ZM67.2035 54.5245c-.4594-.3276-.9311-.6608-1.4162-1.0007 0 0-1.0138-.6351-2.7151-1.6504.0145.8532.0212 1.7152.0212 2.5852 0 .9336-.0078 1.8594-.0246 2.7741 1.1446-.7112 2.553-1.6191 4.1347-2.7082Z"/>
  <path fill="#FFED00" d="M54.429.587891C24.5319.587891.296387 24.8326.296387 54.7384S24.5331 108.889 54.429 108.889c29.896 0 54.133-24.2448 54.133-54.1506 0-29.9058-24.237-54.150509-54.133-54.150509ZM85.4338 71.913c-1.6565 2.8658-11.0481.6922-22.8652-4.8516-1.1289 13.0051-3.9524 22.2242-7.2565 22.2242-2.0936 0-3.9938-3.7011-5.3933-9.7189-1.0831-.2292-1.898-1.2199-1.898-2.4085 0-.8397.4069-1.581 1.0273-2.0238-.4091-2.4789-.7467-5.2094-.9993-8.1311-11.8663 5.5102-21.2903 7.657-22.9367 4.7867-1.6443-2.868 4.9383-9.9089 15.6577-17.3614-2.5116-1.7621-4.7963-3.5009-6.7983-5.1669-.2884.1286-.6069.2013-.9411.2013-1.3123 0-2.3753-1.1003-2.3753-2.4577 0-.2102.0257-.4137.0738-.6083-4.3951-4.1583-6.5748-7.5955-5.5386-9.3879 1.6566-2.8647 11.0537-.6932 22.8652 4.846 1.1289-13.0017 3.9524-22.2174 7.2566-22.2174 3.3041 0 6.1365 9.2459 7.261 22.2801 2.4859-1.154 4.8646-2.1614 7.0878-3.0056-.0089-.0872-.0134-.1744-.0134-.2639 0-1.3574 1.0641-2.4577 2.3753-2.4577.8674 0 1.6263.482 2.041 1.2009 6.093-1.8751 10.3841-2.1088 11.446-.2583 1.6443 2.8681-4.9383 9.9079-15.6555 17.3603 10.6792 7.4971 17.2383 14.5638 15.5806 17.424l-.0011-.0045Z"/>
  <path fill="#FFED00" d="M61.6204 51.0155c-1.7459-1.0254-3.9356-2.2811-6.3623-3.6072-1.7214.9773-3.8195 2.1972-6.0818 3.5725-.009 2.0272.0044 4.5262.076 7.2511 1.4352.8878 2.9073 1.7488 4.3817 2.5438 0 0 .5857.3601 1.6554.9583 1.5738-.8386 3.1443-1.7265 4.6533-2.6545 0 0 .6058-.3276 1.6599-.9538.057-1.7913.0693-3.606.0156-5.3861 0 0 .0157-.6172.0022-1.723v-.0011Zm-6.3914 7.4591c-2.2624 0-4.0955-1.8349-4.0955-4.0969 0-2.262 1.8343-4.0969 4.0955-4.0969 2.2613 0 4.0955 1.8349 4.0955 4.0969 0 2.262-1.8342 4.0969-4.0955 4.0969Zm7.8014.4613c-.0649 2.252-.1778 4.4368-.3331 6.5333 4.1324 1.8875 9.3859 3.9762 15.1313 5.517 0 0 4.3615 1.1114 5.9901.3656.2727-.123.4158-.4249.3409-.7145-.3375-1.2847-2.4725-5.6131-15.6868-15.2011-1.7225 1.1651-3.5411 2.3369-5.4413 3.4997h-.0011Z"/>
</svg>