<svg xmlns="http://www.w3.org/2000/svg" viewBox="0 0 683.73999 673.56">
  <g fill="#ffec00">
    <path d="M656.88 328.44c0-112.32-56.39-211.45-142.39-270.67-47.16-26.18-101.42-41.11-159.19-41.11-181.39 0-328.44 147.05-328.44 328.44 0 112.32 56.39 211.45 142.39 270.67 47.16 26.18 101.42 41.11 159.19 41.11 181.39 0 328.44-147.05 328.44-328.44zM84.57 345.1c0-72.32 28.16-140.31 79.3-191.44 51.14-51.14 119.12-79.3 191.44-79.3s140.31 28.16 191.44 79.3c51.14 51.14 79.3 119.12 79.3 191.44s-28.16 140.31-79.3 191.44c-51.14 51.14-119.12 79.3-191.44 79.3S215 587.68 163.87 536.54c-51.14-51.14-79.3-119.12-79.3-191.44z" class="cls-1"/>
    <path d="M556.63 85.6c2.51 2.36 5 4.75 7.45 7.2 30.6 30.6 54.63 66.24 71.42 105.93 17.38 41.09 26.19 84.73 26.19 129.72 0 44.99-8.81 88.63-26.19 129.72-16.78 39.68-40.81 75.32-71.42 105.93-30.6 30.6-66.24 54.63-105.93 71.42-41.09 17.38-84.73 26.19-129.72 26.19-39.97 0-78.88-6.97-115.89-20.72 43.17 20.87 91.59 32.57 142.76 32.57 181.39 0 328.44-147.05 328.44-328.44 0-105.52-49.78-199.41-127.12-259.5z" class="cls-1"/>
  </g>
  <path fill="#ffec00" d="M328.44 0C147.05 0 0 147.05 0 328.44s147.05 328.44 328.44 328.44 328.44-147.05 328.44-328.44S509.83 0 328.44 0Zm186.14 435.08-80.85 80.85-98.31-98.31-98.31 98.31-80.85-80.85 98.31-98.31-98.31-98.31 80.85-80.85 98.31 98.31 98.31-98.31 80.85 80.85-98.31 98.31z" class="cls-1"/>
</svg>