<svg xmlns="http://www.w3.org/2000/svg" fill="none" viewBox="0 0 93 92">
  <path fill="#FFED00" d="M46.3266 63.3721c-.4462 0-.788.3568-.788.8032 0 .4463.3567.8032.788.8032s.7881-.3569.7881-.8032c0-.4464-.3568-.8032-.7881-.8032Zm2.735-3.0633c-.5794 0-1.0554.4762-1.0554 1.0856-.0149.5944.4611 1.0855 1.0554 1.0855.5942 0 1.0553-.4761 1.0553-1.0855 0-.6094-.476-1.0856-1.0553-1.0856Zm-10.0318-1.2193c-.9659 0-1.7391.7883-1.7391 1.7695-.0149.9811.7732 1.7694 1.7391 1.7694.9659 0 1.7391-.7883 1.7391-1.7694 0-.9812-.7732-1.7695-1.7391-1.7695Zm4.5041 1.7545c-.5794 0-1.0554.4762-1.0554 1.0855 0 .6094.4611 1.0856 1.0554 1.0856.5943 0 1.0554-.4762 1.0554-1.0856 0-.6093-.4761-1.0855-1.0554-1.0855Zm11.0416-6.1108c-.9659 0-1.7391.7883-1.7391 1.7694 0 .9812.7881 1.7695 1.7391 1.7695.951 0 1.7391-.7883 1.7391-1.7695 0-.9811-.7732-1.7694-1.7391-1.7694Zm-3.3583 8.0581c-.4462 0-.788.3568-.788.8032-.0149.4463.3418.8032.788.8032.4462 0 .7881-.3569.7881-.8032 0-.4464-.3568-.8032-.7881-.8032Z"/>
  <path fill="#FFED00" d="M89.2705 44.649c0-15.2682-7.6629-28.745-19.3504-36.79609-6.4088-3.55882-13.7835-5.58875-21.6332-5.58875-24.6511 0-44.63456 19.99004-44.63456 44.64934 0 15.2681 7.66286 28.7449 19.35046 36.796 6.4087 3.5589 13.7834 5.5888 21.6331 5.5888 24.6511 0 44.6346-19.9901 44.6346-44.6493Zm-77.7764 2.2645c0-9.8315 3.8269-19.0735 10.7763-26.0252 6.9493-6.9516 16.1893-10.7798 26.0165-10.7798 9.8273 0 19.0673 3.8282 26.0166 10.7798C81.2529 27.84 85.0798 37.082 85.0798 46.9135c0 9.8315-3.8269 19.0735-10.7763 26.0251-6.9493 6.9517-16.1893 10.7799-26.0166 10.7799-9.8272 0-19.0672-3.8282-26.0165-10.7799C15.321 65.987 11.4941 56.744 11.4941 46.9135Z"/>
  <path fill="#FFED00" d="M75.646 11.6367c.3409.3211.6797.6462 1.0126.9792 4.1589 4.1602 7.4244 9.0054 9.7051 14.4003 2.3621 5.5858 3.5596 11.5185 3.5596 17.6341 0 6.1156-1.1975 12.0483-3.5596 17.6341-2.2807 5.3949-5.5462 10.24-9.7051 14.4003-4.1588 4.1602-9.0024 7.4268-14.3955 9.7082-5.584 2.3629-11.5147 3.5608-17.6283 3.5608-5.4329 0-10.7206-.9483-15.7491-2.8162 5.8662 2.8371 12.4479 4.4276 19.4002 4.4276 24.6511 0 44.6346-19.99 44.6346-44.6493 0-14.3456-6.7645-27.1087-17.2755-35.2781l.001-.001Z"/>
  <path fill="#FFED00" d="M62.3048 24.2256c-1.2183-.8032-2.1991-1.338-2.9574-1.6502-1.7798 1.4375-3.3469 2.4763-4.5196 3.1384-.1808.1083-.3557.2117-.5187.3101 3.4781 1.5756 6.5101 4.044 8.7838 7.1216.007-.0258.0139-.0507.0209-.0765-.0169-.0239-.0338-.0477-.0507-.0716.5197-1.6949 1.3972-4.1185 2.7199-5.8869-.788-.847-2.0362-1.9176-3.4782-2.8839v-.001Z"/>
  <path fill="#FFED00" d="M44.6346 0C19.9835 0 0 19.99 0 44.6493c0 24.6593 19.9835 44.6493 44.6346 44.6493s44.6346-19.99 44.6346-44.6493C89.2692 19.99 69.2857 0 44.6346 0Zm25.0705 30.3514c-.7582 1.0408-1.9766 1.6204-3.3738 1.6204-.5346 0-1.0554-.0895-1.59-.2376-.3776 1.0607-.6718 2.1044-.8556 3.0727 2.1872 3.518 3.4553 7.6852 3.4553 12.1517 0 12.592-10.032 22.8063-22.4122 22.8063-12.3803 0-22.4122-10.2143-22.4122-22.8063 0-12.5921 10.0319-22.8063 22.4122-22.8063 2.7457 0 5.3792.507 7.8149 1.4325.5078-.2446 1.1487-.5866 1.9209-1.0617-.2226-.342-.4164-.7287-.5645-1.0408-.4163-1.011-.2673-2.6612.3717-3.8949.5197-1.0408 1.3525-1.7396 2.3035-1.9325.3866-.0745.7583-.1193 1.1747-.1193 2.0809 0 4.6815 1.0409 7.149 2.8541 3.0767 2.2595 4.7711 4.3113 5.3057 6.3482.3419 1.1601.0298 2.5419-.6986 3.6125l-.001.001Z"/>
  <path fill="#FFED00" d="M64.4435 21.3122c-2.7944-2.0816-5.6326-2.9285-7.4611-2.5419-1.8136.3867-2.3482 3.196-1.8871 4.2816.1053.2276.2792.5179.5058.8479.1262-.0825.2544-.166.3856-.2535-.2375-.6093-.3121-1.4573.3716-2.1561 1.0256-1.0408 3.2993-.4315 6.5539 1.7694 1.1448.8033 2.2737 1.695 3.1065 2.4982 1.1746 1.1303 1.739 2.0518 1.739 2.7804.0298.7734-.312 1.189-.6091 1.4275-.4164.3569-.9362.4315-1.3973.4315-.1928 0-.3865 0-.5346-.0448-.0398.0915-.0785.1839-.1173.2764 3.3371.846 4.6876-1.8043 4.2334-3.5767-.4909-1.8142-2.0809-3.6573-4.8893-5.7389v-.001Zm-19.5133 4.1185c-11.6966 0-21.1641 9.6336-21.1641 21.5279 0 11.8942 9.4675 21.5279 21.1641 21.5279 11.6965 0 21.164-9.6337 21.164-21.5279 0-11.8943-9.4675-21.5279-21.164-21.5279Zm12.1427 11.4777c.8029 0 1.4419.6541 1.4419 1.4573s-.6539 1.4573-1.4419 1.4573c-.7881 0-1.442-.6541-1.442-1.4573s.639-1.4573 1.442-1.4573Zm-5.5581-6.5858c1.8722 0 3.4036 1.5458 3.4036 3.4643 0 1.9186-1.5165 3.4644-3.4036 3.4644s-3.4036-1.5458-3.4036-3.4644c0-1.9185 1.5155-3.4643 3.4036-3.4643ZM44.9312 67.223c-10.989 0-19.9765-9.0124-20.1345-20.1591-.002-.0397-.004-.0805-.004-.1202 0-.0159.001-.0299.002-.0458 0-.0447-.002-.0884-.002-.1322h.0059c.1352-2.5816 3.2248-2.4981 8.7322-1.8579 2.541.3121 6.0192.505 9.8829-.6541 4.4739-1.3828 8.3674-1.7695 12.2311-1.4574 5.1875.4484 9.1227 1.7397 9.3384 3.9694h.0397c0 11.2839-9.0064 20.4573-20.0937 20.4573h.002Z"/>
</svg>