<svg xmlns="http://www.w3.org/2000/svg" fill="none" viewBox="0 0 68 67">
  <path fill="#FFED00" d="M64.6155 32.4927c0-10.9343-5.4882-20.5845-13.8572-26.3501-4.5893-2.54918-9.8704-4.00246-15.4915-4.00246-17.6532 0-31.96358 14.31516-31.96358 31.97406 0 10.9343 5.48816 20.5845 13.85718 26.3501 4.5893 2.5492 9.8704 4.0025 15.4915 4.0025 17.6531 0 31.9636-14.3151 31.9636-31.9741ZM8.91871 34.1142c0-7.0402 2.74029-13.6593 7.71719-18.6369 4.977-4.9787 11.593-7.71984 18.6309-7.71984 7.0378 0 13.6548 2.74114 18.6308 7.71984 4.977 4.9776 7.7172 11.5967 7.7172 18.6369 0 7.0402-2.7402 13.6594-7.7172 18.637-4.976 4.9786-11.593 7.7198-18.6308 7.7198-7.0379 0-13.6548-2.7412-18.6309-7.7198-4.976-4.9776-7.71719-11.5968-7.71719-18.637Z"/>
  <path fill="#FFED00" d="M54.8593 8.85168c.2442.23002.4864.46289.7249.70146 2.9788 2.97976 5.3172 6.44896 6.9505 10.31176 1.6913 3.9996 2.5493 8.2482 2.5493 12.628 0 4.3798-.858 8.6285-2.5493 12.6281-1.6333 3.8637-3.9717 7.3329-6.9505 10.3117-2.9787 2.9798-6.4468 5.3189-10.3083 6.9528-3.9983 1.6918-8.2455 2.5501-12.6239 2.5501-3.89 0-7.6773-.6786-11.2785-2.0169 4.2007 2.0312 8.9136 3.1708 13.8924 3.1708 17.6531 0 31.9636-14.3152 31.9636-31.9741 0-10.2728-4.844-19.4135-12.3712-25.26276l.001-.00096ZM30.9897 41.4024c-.4761-2.1271-.745-4.4824-.7858-6.9356-1.9174 1.1482-3.6648 2.36-5.1575 3.5757 1.1782.8573 2.459 1.65 3.8196 2.3581.7032.365 1.412.6996 2.1227 1.0028l.001-.001Z"/>
  <path fill="#FFED00" d="M41.7154 44.9649c-.2423.019-.4884.0333-.7392.0428-.2138.0076-.4295.0114-.6471.0114-1.9991 0-4.1332-.3175-6.2996-.9258-.0798-.0228-.1653-.0162-.2413.0162-.0124.0057-.0247.0104-.0371.0161-.1777.077-.2622.2823-.1881.461v.0029c1.1592 2.82 2.7232 4.4539 4.291 4.4815 1.4423.0266 2.9312-1.3079 4.1398-3.686.1026-.2005-.0541-.4382-.2784-.4201Zm-6.7374 4.469c-1.0822-.9163-2.0447-2.3572-2.8277-4.2639 0-.0009 0-.0019-.0009-.0028-.0741-.1797-.2756-.269-.457-.2006-2.0201.7718-3.9489 1.344-5.6849 1.6785-.8162.1569-1.5687.2576-2.2557.3023-.038.0019-.0807.0048-.1263.0067-.2214.0104-.3003.2984-.1141.4182 2.7023 1.7403 5.8493 2.6737 9.1406 2.6737.7364 0 1.4652-.0476 2.1845-.1398.2328-.0294.3211-.3212.1425-.4733l-.001.001Zm-4.7327-5.5603c.019-.0066.0371-.0133.0561-.0199.1501-.0542.3012-.1084.4522-.1644.0342-.0124.0694-.0257.1036-.039.1245-.0466.2499-.0941.3753-.1426.0523-.0199.1055-.0409.1578-.0608.0418-.0162.0845-.0323.1263-.0494.7488-.2937 1.5098-.616 2.2785-.9638h.0019c.0713-.0323.1416-.0647.2129-.097.0142-.0066.0285-.0133.0427-.0199.9274-.4259 1.8643-.8878 2.8021-1.3849 2.8514-1.5112 5.4454-3.1993 7.5433-4.8949.0789-.8811.1273-1.7812.1435-2.6937.0256-1.4428-.0295-2.8581-.1606-4.2163l-.0285-.0285c.0067-.0048.0143-.0086.0209-.0124-.0788-.8098-.1862-1.5987-.3183-2.3619.0019.0019.0029.0028.0048.0047-.3107-1.7888-.7649-3.435-1.3512-4.8626-1.1582-2.8201-2.7212-4.453-4.29-4.4815h-.0418c-1.3292 0-2.6937 1.15-3.8415 3.2031-.1245.2224-.0218.5047.2157.595 1.1136.4258 2.2253.9238 3.3199 1.4932 1.6247.845 3.1431 1.8078 4.5209 2.8571.3838.2928.6442.7176.7287 1.1938.0675.3783.1283.7642.1825 1.1558.0769.5608-.2784 1.0883-.8286 1.2214-2.9407.7119-6.3661 2.0596-9.7981 3.8618h-.0019c-.191.1017-.419-.0419-.4114-.2567.0114-.3431.0276-.7756.0399-.9904.0105-.1796.115-.3402.2756-.422 3.4662-1.7679 6.9133-3.0786 9.8788-3.7582-1.5545-1.304-3.3398-2.4921-5.2905-3.5063-1.0081-.5237-2.0286-.9837-3.05-1.3791-.038-.0152-.076-.0295-.1141-.0438-.0399-.0152-.0788-.0304-.1187-.0456-.1264-.0475-.2528-.0941-.3791-.1397-.0114-.0038-.0228-.0086-.0342-.0124-.4856-.1748-.9702-.3345-1.4538-.479-.0351-.0105-.0703-.02-.1064-.0314-.0456-.0133-.0912-.0275-.1378-.0408-2.0913-.6036-4.1484-.9191-6.0649-.9191-.2005 0-.4.0038-.5976.0104-3.1242.1093-5.4796 1.0807-6.7462 2.7573-.152.2272-.2984.4572-.439.6901-.0028.0047-.0057.0095-.0085.0152-1.1013 2.1129-.6414 4.9159 1.296 7.8909.9853 1.5141 2.2899 2.9731 3.8386 4.317.3117.27.7716.2804 1.0937.0229 1.5459-1.2347 3.3351-2.4589 5.2829-3.6138.3592-.2129.5863-.5931.6053-1.0103.1472-3.2906.6974-6.4005 1.5905-9.021.0741-.2177.3088-.3365.5283-.268.2176.0684.4343.1387.6519.2138.2232.0761.342.3184.266.5418-.8238 2.4133-1.3407 5.2827-1.4984 8.3357-.0228.4277-.038.8583-.0456 1.2926-.0029.1588-.0038.3175-.0048.4753v.0522c0 .0438-.0019.1189-.0009.1626.0028.1378.0019.2775.0028.4153v.0913h.001c.0332 2.5302.3164 4.9453.8266 7.0915.0048.0209.0133.0561.0247.1008.0893.3535-.0931.7204-.4295.8601-.3088.1293-.6166.2538-.9216.3736-.3677.1444-.7782.1321-1.1383-.0304-.6471-.2918-1.2799-.6141-1.9288-.9505-1.4642-.7614-2.8401-1.6187-4.1067-2.5483-.6252-.459-1.2238-.9343-1.791-1.4257-1.6619-1.4409-3.0643-3.0111-4.1275-4.644-.7896-1.2138-1.3616-2.4133-1.7132-3.5729-.0513-.1701-.2964-.1587-.3335.0153-.2432 1.1491-.3677 2.3315-.3677 3.5338 0 3.3619.9739 6.5745 2.7868 9.3157.172.2594.5635.229.6937-.0542.4579-.999 1.2751-2.1091 2.4438-3.3077.0104-.0104.0446-.0456.0912-.0912.2109-.212.5482-.2291.781-.0409.0922.0741.1853.1492.2794.2224.2727.2148.2955.6197.0513.8659h-.001c-2.3364 2.3657-2.7963 3.9217-2.4409 4.5937.361.6815 1.9459 1.1786 5.3123.5303 1.393-.268 2.9218-.7005 4.5266-1.2717l.0038-.0048Zm13.8776-22.5889c.6109 1.4884 1.0869 3.1936 1.4166 5.0404.0742.4134.439.7081.858.7005.6053-.0105 1.1526.0285 1.6391.1159.2223.04.4-.1796.3154-.3887-.8399-2.0768-2.097-3.9835-3.7284-5.6154-.1045-.1046-.2091-.2072-.3155-.308-.1425-.1359-.3686.0219-.2907.2025.0361.0827.0712.1673.1055.2518v.001Zm1.9222 12.9216c-.0057.152.1776.2328.2869.1273.0884-.0855.1748-.1701.2603-.2547.2328-.2329.4476-.4572.6452-.6748.1245-.1369.1463-.3384.0551-.4981-.1463-.2576-.305-.517-.4741-.7775-.1273-.1958-.2613-.3916-.3991-.5855-.1121-.1578-.3611-.0751-.3563.1188.0143.5646.0171 1.134.0067 1.708-.0048.2804-.0133.5589-.0238.8365h-.0009Z"/>
  <path fill="#FFED00" d="M22.9695 19.665c.7183-.1321 1.4832-.2148 2.2908-.2424 2.1892-.0769 4.5599.2424 6.9685.9211.3563.1007.7326-.058.9093-.3831.7269-1.3307 1.5488-2.3562 2.4325-3.0501.1948-.153.113-.4648-.1312-.5056-.9121-.1502-1.8433-.2281-2.7868-.2281-3.5735 0-6.978 1.1016-9.8275 3.1422-.1673.1198-.058.3831.1444.346Zm23.6125 8.8848h-.0057c-.2413 0-.3724.2851-.2128.4667.649.7394 1.2305 1.5008 1.735 2.2764.0219.0342.0437.0674.0656.1017.1397.2195.4637.2091.59-.0191.5226-.9428.5844-1.612.382-1.9941-.2423-.4571-1.0376-.8326-2.5541-.8326v.001Z"/>
  <path fill="#FFED00" d="M32.6515.518555C14.9984.518555.687988 14.8337.687988 32.4926c0 17.659 14.310412 31.9741 31.963512 31.9741 17.6532 0 31.9636-14.3151 31.9636-31.9741 0-17.6589-14.3104-31.974045-31.9636-31.974045ZM49.8457 39.8484c-.0836.2395-.1805.4743-.2917.7034-.9102 2.0682-2.2063 3.9701-3.852 5.6154-3.4861 3.4873-8.121 5.4082-13.0505 5.4082-4.9294 0-9.5653-1.9209-13.0505-5.4082-3.4861-3.4873-5.4055-8.1238-5.4055-13.0548 0-3.399.9122-6.6572 2.6196-9.4963.1559-.288.3307-.5627.5264-.8231.6575-.9714 1.412-1.8876 2.2595-2.7364 3.4862-3.4873 8.1211-5.4073 13.0505-5.4073 4.9295 0 9.5653 1.92 13.0505 5.4073 2.5626 2.5634 4.2777 5.7485 5.0074 9.2158.0038.0162.0067.0323.0105.0475.2565 1.2338.3886 2.5027.3886 3.7925 0 2.3429-.4342 4.6183-1.2628 6.7369v-.0009Z"/>
  <path fill="#FFED00" d="M43.7689 38.4408c-1.8414 1.3392-3.9441 2.6461-6.1989 3.8408-.3211.1702-.6433.3365-.9644.499-.1625.0827-.1283.3251.0513.3584 1.4728.2709 2.9075.3887 4.2634.3412.5558-.02 1.087-.0665 1.5925-.1397.2337-.0343.4275-.1977.5026-.4211.4437-1.3117.7972-2.7573 1.0528-4.2924.0285-.1682-.1625-.287-.3003-.1862h.001Zm5.6314-5.2582c-.0276.0362-.0504.0666-.0618.0808-.0551.0732-.0646.1702-.0285.2538.02.0456.0399.0913.0589.1369.0447.1055.2005.0751.2043-.039.0048-.1445.0076-.2661.0076-.4077 0-.1074-.1064-.1217-.1805-.0248Zm-4.5847 11.1947c-.228.0731-.4618.1406-.7022.2015-.0579.0152-.1054.056-.1282.1112-.0951.2338-.1929.4628-.2946.6872-.0237.0532-.0484.1064-.0731.1596-.0865.1854.1444.3546.2964.2186.2413-.2157.4779-.4381.7079-.6691.1321-.1321.2622-.2671.3895-.403.1331-.1416-.0123-.3659-.1966-.306h.0009Zm2.8615-9.2225-.0047.0047c-.4419.442-.9226.8868-1.4376 1.3316-.2404.2082-.3962.4971-.4343.8127-.2042 1.6919-.5188 3.3058-.934 4.7942-.0836.2985.2233.5561.5046.4239 1.2513-.5893 2.1882-1.4352 2.7469-2.5102.0142-.0275.0276-.0561.0418-.0846.0893-.2034.1748-.4096.2556-.6168.4-1.1796.3763-2.5331-.0608-3.9854-.0884-.2946-.4599-.3878-.6775-.1711v.001Z"/>
</svg>