<svg xmlns="http://www.w3.org/2000/svg" fill="none" viewBox="0 0 54 53">
  <path fill="#FFED00" d="M51.0362 26.0772c0-8.671-4.3524-16.32366-10.9885-20.89639-3.6397-2.02097-7.827-3.17434-12.2855-3.17434-13.9993 0-25.34814 11.35253-25.34814 25.35653 0 8.671 4.35243 16.3236 10.98854 20.8964 3.6396 2.0209 7.827 3.1743 12.2855 3.1743 13.9993 0 25.3481-11.3526 25.3481-25.3565ZM6.86737 27.363c0-5.5833 2.17359-10.8323 6.11983-14.7798 3.9463-3.94762 9.1936-6.12195 14.775-6.12195 5.5813 0 10.8286 2.17433 14.7749 6.12195 3.9462 3.9475 6.1198 9.1965 6.1198 14.7798 0 5.5832-2.1736 10.8321-6.1198 14.7797-3.9463 3.9476-9.1936 6.1219-14.7749 6.1219-5.5814 0-10.8287-2.1743-14.775-6.1219-3.94624-3.9476-6.11983-9.1965-6.11983-14.7797Z"/>
  <path fill="#FFED00" d="M43.2984 7.32886c.1939.18217.3865.36697.5752.5557 2.3622 2.36304 4.2162 5.11404 5.5119 8.17824 1.3417 3.1717 2.0216 6.5413 2.0216 10.0144 0 3.4731-.6799 6.8427-2.0216 10.0144-1.2957 3.0642-3.1497 5.8152-5.5119 8.1782-2.3623 2.3631-5.1123 4.2176-8.1755 5.5138-3.1707 1.342-6.5392 2.0223-10.0111 2.0223-3.0855 0-6.0885-.5387-8.9433-1.599 3.3317 1.6107 7.0684 2.5138 11.0173 2.5138 13.9993 0 25.3481-11.3526 25.3481-25.3565 0-8.1467-3.8415-15.3945-9.8107-20.03403v-.00131Z"/>
  <path fill="#FFED00" d="M25.6879.720703C11.6886.720703.339844 12.0732.339844 26.0772c0 14.0039 11.348756 25.3564 25.348056 25.3564S51.036 40.0811 51.036 26.0772c0-14.004-11.3488-25.356497-25.3481-25.356497ZM20.3883 40.8504H15.462V12.5818h4.9263v28.2686Zm19.6736.0039h-6.184L23.0702 26.7154l10.8077-14.131h6.184l-10.6557 14.131 10.6557 14.1389Z"/>
</svg>