<svg xmlns="http://www.w3.org/2000/svg" fill="none" viewBox="0 0 75 74">
  <g fill="#FFED00" clip-path="url(#coin-18301298140120)">
    <path d="M60.6269 9.40397c.2712.25919.5412.5221.8062.79123 3.3118 3.362 5.9126 7.2783 7.7291 11.6374 1.8813 4.5141 2.8342 9.3097 2.8342 14.2516s-.9541 9.7375-2.8342 14.2516c-1.8165 4.3603-4.4173 8.2754-7.7291 11.6374-3.3117 3.362-7.1696 6.0023-11.4635 7.8463-4.4467 1.9099-9.1706 2.8772-14.0387 2.8772-4.3257 0-8.5378-.7664-12.5422-2.2769 4.6714 2.293 9.9133 3.5778 15.4496 3.5778 19.6312 0 35.5463-16.1565 35.5463-36.0854 0-11.5941-5.3873-21.9095-13.7577-28.51071v.00248Z"/>
    <path d="M37.0425 13.5162c-13.0772-.2319-22.9332 10.22-23.2202 22.5271-.3152 13.4542 10.3189 23.9072 22.9613 23.8068 12.4286-.0992 22.5496-10.215 22.6339-23.1037-.0672-12.9668-10.1406-23.0131-22.3737-23.2302h-.0013Zm18.7786 20.3134c.6486.3535.8184 1.1844.3225 1.7362-.2114.2356-.5021.4192-.7892.5605-2.9257 1.4411-5.8588 2.8685-8.7894 4.3008-.4936.2419-.9749.5147-1.4782.7305-.3713.1599-.5363.3894-.5033.8036.0562.6982.0819 1.3988.121 2.0983.0745 1.2959.1612 2.5906.2211 3.8866.094 2.0387.1783 4.0788.2431 6.1188.0073.248-.0721.5456-.2138.7428-.4361.6052-1.1447.6486-1.6968.1129-.5449-.5271-1.0592-1.0864-1.5808-1.637-.3384-.3572-.6584-.7317-.998-1.0864-1.4037-1.467-2.8158-2.9254-4.217-4.395-.5094-.5345-1.0066-1.0802-1.4879-1.6395-.2553-.2976-.4972-.3137-.8515-.1723-3.5329 1.4112-7.0743 2.8051-10.6121 4.2028-.1515.0595-.309.1054-.4581.1686-.5155.2195-.9687.098-1.3315-.3001-.3726-.408-.3909-.8991-.1527-1.3827.2907-.5903.6071-1.167.9162-1.7474 1.0322-1.942 2.0669-3.8816 3.0992-5.8236.5302-.9983 1.0567-1.9991 1.5844-2.9999.0855-.1625.1625-.3274.2675-.5407-.9687-1.2091-1.9032-2.3761-2.8365-3.5443-1.0237-1.2798-2.0462-2.5621-3.0711-3.842-.6023-.7515-1.2082-1.5005-1.8154-2.2483-.3628-.4465-.4678-1.0268-.2492-1.4311.2688-.4948.7941-.7143 1.4159-.6003 3.0943.5668 6.1886 1.1323 9.2817 1.6978.7379.1352 1.477.2654 2.2148.4043.5607.1054.5632.1116.8808-.3869 1.1019-1.7338 2.2001-3.4699 3.3008-5.2049.9797-1.544 1.9606-3.0867 2.9416-4.6294.088-.1377.1722-.2815.2773-.4055.2859-.3361.6511-.5172 1.0848-.4118.4385.1067.7782.3833.8905.8433.1075.4378.1711.888.2309 1.3357.182 1.3666.3433 2.7357.529 4.1011.1857 1.3641.397 2.7246.5851 4.0887.1039.754.1906 1.5092.2724 2.2657.0917.8532.0917.8718.8796 1.0827 2.3125.6213 4.6262 1.2351 6.9387 1.854 1.3927.372 2.7853.7465 4.1767 1.1235.1564.0422.3164.0893.4569.1662v.0037Z"/>
    <path d="M35.9311 0C16.2999 0 .384766 16.1552.384766 36.0854S16.2999 72.1708 35.9311 72.1708s35.5462-16.1565 35.5462-36.0854S55.5623 0 35.9311 0Zm25.1113 38.4131c-.0806.6313-.1478 1.2637-.2456 1.8912-.3945 2.5423-1.136 4.9767-2.2514 7.2895-.9247 1.9173-2.0999 3.6622-3.4681 5.288-.9553 1.1347-2.0022 2.164-3.1444 3.0916-1.7359 1.4101-3.6074 2.6006-5.6744 3.4637-2.1341.8917-4.3245 1.5527-6.6272 1.8019-.5607.0608-1.1178.1588-1.6773.2406h-2.8097c-.1746-.0421-.3481-.098-.5253-.124-1.0444-.1513-2.1011-.2356-3.1321-.4526-1.9766-.4155-3.8786-1.079-5.6915-1.988-1.8288-.9164-3.5231-2.035-5.0746-3.388-1.1287-.9859-2.1732-2.0487-3.1089-3.2182-1.466-1.8329-2.6656-3.8345-3.5537-6.0221-.8307-2.0437-1.4183-4.1532-1.6773-6.3532-.0647-.5481-.1343-1.0962-.2027-1.6444v-3.2243c.0769-.6722.127-1.3481.2333-2.0152.4239-2.6626 1.1959-5.2148 2.4126-7.6182.8955-1.7684 1.9827-3.4029 3.2691-4.9084 1.0029-1.1744 2.0889-2.2534 3.2873-3.2145 1.7469-1.4013 3.6318-2.572 5.6951-3.4401 2.4396-1.0256 4.961-1.699 7.6021-1.885.1576-.0112.3115-.0719.4666-.1104h2.9319c.1564.036.3103.0881.4679.1054.5436.0571 1.0945.072 1.6333.1588 2.6056.4154 5.1063 1.1806 7.4615 2.3959 1.742.8991 3.3656 1.9818 4.8522 3.2827 1.1276.9871 2.1745 2.0487 3.109 3.2181 1.466 1.8342 2.6656 3.8357 3.5573 6.0221.8344 2.0462 1.4183 4.1594 1.6785 6.3619.0599.5084.1369 1.0156.2065 1.5229v3.4723Z"/>
  </g>
  <defs>
    <clipPath id="coin-18301298140120">
      <rect width="74" height="74" fill="#fff" transform="translate(.384766)"/>
    </clipPath>
  </defs>
</svg>