<svg xmlns="http://www.w3.org/2000/svg" fill="none" viewBox="0 0 74 74">
  <g fill="#FFED00" clip-path="url(#coin-183091391823091)">
    <path d="M71.0924 36.085c0-12.3396-6.1025-23.2311-15.4105-29.73826-5.1035-2.87608-10.9764-4.51666-17.2284-4.51666-19.6311 0-35.54627 16.15542-35.54627 36.08492 0 12.3397 6.10246 23.2311 15.41047 29.7383 5.1034 2.8761 10.9764 4.5167 17.2284 4.5167 19.632 0 35.5463-16.1554 35.5463-36.085Zm-61.93986 1.83c0-7.9447 3.04746-15.4148 8.58226-21.0326 5.534-5.6178 12.8925-8.71236 20.7187-8.71236 7.8262 0 15.1847 3.09356 20.7187 8.71236 5.5339 5.6178 8.5823 13.0879 8.5823 21.0326 0 7.9448-3.0474 15.4149-8.5823 21.0327-5.534 5.6178-12.8925 8.7124-20.7187 8.7124-7.8262 0-15.1847-3.0936-20.7187-8.7124-5.5339-5.6178-8.58226-13.0879-8.58226-21.0327Z"/>
    <path d="M60.243 9.40453c.2714.26006.5418.52205.8066.79077 3.3121 3.3624 5.9129 7.2777 7.729 11.6378 1.8808 4.5138 2.8341 9.3088 2.8341 14.2518s-.9533 9.7372-2.8341 14.2519c-1.817 4.36-4.4169 8.2754-7.729 11.6377-3.3122 3.3624-7.1691 6.0026-11.4641 7.8462-4.4463 1.9093-9.1698 2.8771-14.0391 2.8771-4.3263 0-8.5375-.7667-12.542-2.2767 4.6721 2.2921 9.9127 3.5779 15.4495 3.5779 19.632 0 35.5463-16.1554 35.5463-36.085 0-11.5932-5.3873-21.9085-13.7572-28.51044v.00097Z"/>
    <path d="M55.5631 18.9773c-.9428-1.6551-2.8856-2.3705-4.7121-1.8552-1.7323.4892-2.9817 2.1404-3.0046 4.1454-.04 3.3547-.0105 6.7103-.0095 10.0659 0 3.1912.0628 6.3853-.0353 9.5737-.0323 1.0625-.279 2.2216-.7742 3.1448-1.2142 2.2661-3.8312 3.2909-6.212 2.6576-2.5779-.6844-4.2607-2.8722-4.2892-5.6883-.0343-3.3547.0381-6.7112-.0267-10.0649-.0428-2.2216-1.8094-3.9414-3.9464-4.0284-2.1684-.088-4.2445 1.5816-4.2778 3.8061-.0638 4.2488-.2143 8.5354.2371 12.7437.7285 6.7895 7.1148 12.0254 13.8867 11.8553 7.1167-.1789 13.2868-5.5995 13.6277-12.5697.3533-7.2246.1791-14.4772.1791-21.7172 0-.6941-.2905-1.4549-.6409-2.0707l-.0019.0019Z"/>
    <path d="M32.3875 25.4527c3.2988.0135 5.6749 2.5068 5.6911 5.9909.0152 3.2725-.0077 6.5459.0247 9.8184.0229 2.2525 1.7732 4.0149 3.9979 4.1009 2.0884.0812 4.1968-1.6019 4.2263-3.7258.061-4.2876.2391-8.6177-.2352-12.8598-.7561-6.7721-7.1138-11.9857-13.7896-11.8175-7.2757.1837-13.2753 5.6129-13.7496 12.7186-.2447 3.6639-.0428 7.3579-.0428 11.0383h-.0857c0 3.3547-.0248 6.7093.0076 10.0639.0267 2.8171 1.9284 4.7003 4.4464 4.479 2.3208-.205 3.8093-1.9413 3.8197-4.5283.0257-6.4637.0134-12.9274.0486-19.3911.019-3.4291 2.4198-5.9001 5.6406-5.8866v-.0009Z"/>
    <path d="M35.5463 0C15.9142 0 0 16.1554 0 36.085c0 19.9295 15.9142 36.0849 35.5463 36.0849S71.0926 56.0145 71.0926 36.085C71.0926 16.1554 55.1774 0 35.5463 0Zm22.0909 42.0595c-.1961 6.8523-5.1072 12.6461-11.7268 14.3611-6.4358 1.6667-13.3201-1.1582-16.8666-6.921-.1904-.3093-.3761-.6216-.8085-.9242 0 .7705.0029 1.541 0 2.3125-.0143 3.4638-2.4227 6.0122-5.6844 6.017-3.2255.0058-5.6882-2.5754-5.6929-6.0199-.0105-6.5053-.0019-13.0106.0104-19.5158.0134-7.1501 4.5378-13.3586 11.0974-15.2506 6.9186-1.9953 13.8839.7377 17.6865 6.9404.1467.2397.299.4766.4485.7154.0981-.0097.1972-.0194.2953-.0281 0-.8817-.0162-1.7633.0028-2.644.0686-3.1082 2.536-5.6101 5.5606-5.6536 3.0017-.0435 5.6787 2.4178 5.7082 5.5027.0686 7.0361.1705 14.0788-.0305 21.11v-.0019Z"/>
  </g>
  <defs>
    <clipPath id="coin-183091391823091">
      <rect width="74" height="74" fill="#fff"/>
    </clipPath>
  </defs>
</svg>