<svg xmlns="http://www.w3.org/2000/svg" fill="none" viewBox="0 0 56 56">
  <path fill="#FFED00" d="M53.7995 27.3408c0-9.2014-4.6181-17.3242-11.6623-22.17561-3.8618-2.14507-8.3067-3.3677-13.0382-3.3677-14.8569 0-26.89978 12.04801-26.89978 26.90861 0 9.2014 4.61808 17.3241 11.66228 22.1756 3.8618 2.1451 8.3067 3.3677 13.0382 3.3677 14.8569 0 26.8998-12.0481 26.8998-26.9086ZM6.92586 28.7049c0-5.9252 2.3066-11.4953 6.49414-15.6842 4.1887-4.1901 9.757-6.49624 15.679-6.49624 5.922 0 11.4915 2.30736 15.679 6.49624 4.1887 4.1901 6.4941 9.7602 6.4941 15.6842 0 5.924-2.3066 11.4953-6.4941 15.6842-4.1887 4.1901-9.757 6.4962-15.679 6.4962-5.922 0-11.4915-2.3073-15.679-6.4962-4.18876-4.1901-6.49414-9.7602-6.49414-15.6842Z"/>
  <path fill="#FFED00" d="M45.5892 7.44446c.2062.19401.4099.38925.6099.58935 2.5067 2.50749 4.4742 5.42739 5.8489 8.67789 1.4234 3.3665 2.1455 6.9416 2.1455 10.6278 0 3.6862-.7221 7.2613-2.1455 10.6278-1.3747 3.2518-3.3422 6.1716-5.8489 8.6779-2.5066 2.5075-5.4256 4.4756-8.675 5.8508-3.3654 1.4239-6.9394 2.1463-10.6243 2.1463-3.2739 0-6.4612-.5711-9.4911-1.6973 3.5361 1.7095 7.5016 2.6685 11.6916 2.6685C43.9572 55.6135 56 43.5655 56 28.7049c0-8.645-4.0765-16.3382-10.4108-21.26044Z"/>
  <path fill="#FFED00" d="M21.5098 31.5492H32.589l-5.4975-9.4979-5.5817 9.4979Z"/>
  <path fill="#FFED00" d="M26.8998.432129C12.0429.432129 0 12.4802 0 27.3408c0 14.8605 12.0441 26.9086 26.8998 26.9086 14.8556 0 26.8997-12.0481 26.8997-26.9086 0-14.8606-12.0441-26.908671-26.8997-26.908671ZM38.4157 40.6786H26.8998l-5.5671-8.8268-5.1877 8.8268-5.7574-9.8896 5.7574-9.8896h10.2803L21.1424 11.77h11.0817l11.1902 19.2362-5.2816 9.2209.2842.4515h-.0012Z"/>
</svg>