<svg xmlns="http://www.w3.org/2000/svg" fill="none" viewBox="0 0 41 41">
  <g fill="#FFED00" clip-path="url(#coin-183108312321)">
    <path d="M33.243 5.74229c.147.1384.2934.27879.4371.4225 1.7952 1.79527 3.2051 3.88651 4.1898 6.21421 1.0198 2.4105 1.5363 4.9713 1.5363 7.6102 0 2.639-.5171 5.1997-1.5363 7.6102-.9847 2.3284-2.3946 4.419-4.1898 6.2143-1.7953 1.7952-3.8866 3.2051-6.2143 4.1898-2.4105 1.0198-4.9712 1.5363-7.6102 1.5363-2.3449 0-4.6282-.4092-6.799-1.2158 2.5324 1.2245 5.3739 1.9105 8.3751 1.9105 10.6418 0 19.2692-8.6273 19.2692-19.2692 0-6.191-2.9204-11.69935-7.4579-15.22433v.00132Z"/>
    <path d="M23.8861 19.8694c-.5424 0-.9662.2629-1.1205.788h2.1635c-.0642-.5258-.4636-.788-1.043-.788Zm4.6587.0994c-.7152 0-1.139.5165-1.139 1.1482 0 .6318.4549 1.1569 1.1383 1.1569s1.1397-.5258 1.1397-1.1569-.4238-1.1482-1.139-1.1482Zm-16.5053-2.545v-.0318h-1.3423l-2.17603 2.3555V17.392H7.44043v5.5712h1.08074v-2.4668l2.39723 2.4668h1.3337v-.0642l-2.75747-2.8098 2.54487-2.6654Z"/>
    <path d="M19.8556.720703C9.21379.720703.586426 9.34806.586426 19.9899c0 10.6418 8.627364 19.2692 19.269174 19.2692 10.6418 0 19.2692-8.6274 19.2692-19.2692 0-10.64184-8.6274-19.269197-19.2692-19.269197ZM14.7883 23.0122c0 1.3351-1.082 2.4171-2.4171 2.4171H6.56955c-1.33503 0-2.41709-1.082-2.41709-2.4171v-5.801c0-1.335 1.08206-2.4171 2.41709-2.4171h5.80105c1.335 0 2.4171 1.0821 2.4171 2.4171v5.801h.0006Zm7.2996.1226h-1.327l-2.382-2.543v2.543h-1.0742V17.392h1.0722v2.4284l2.1634-2.4284h1.3344v.0325l-2.527 2.7488 2.7409 2.8959v.0662l-.0007-.0006Zm3.7912-1.6476h-3.1283c.0643.5006.4881.8615 1.1947.8615.3662 0 .837-.1404 1.0734-.3788l.6351.6318c-.4305.4344-1.1059.6562-1.7238.6562-1.3833 0-2.2045-.8695-2.2058-2.1568 0-1.2317.8284-2.1171 2.1303-2.1171 1.2278 0 2.0416.7138 2.0416 2.1244 0 .1245-.0086.2476-.0172.3788Zm2.7727 1.7621c-.4317 0-1.043-.1397-1.3343-.59v2.3277h-.994v-5.8971h.9297l.0656.5583c.3165-.4596.8456-.649 1.3006-.649 1.2363 0 2.0575.9351 2.0575 2.1171 0 1.1821-.7397 2.1337-2.0244 2.1337l-.0007-.0007Zm3.5005-.1145h-.9854V17.4h.9854v5.7348Zm2.7277-3.1595c-.5199 0-1 .2702-1 1.0278v2.1323l-.9926-.004v-4.0435h.9198l.0735.4669c.2927-.492.7152-.5655 1.1304-.5655.4152 0 .8139.1728 1.0331.3788l-.4477.8708c-.2033-.1543-.3894-.2629-.7152-.2629l-.0013-.0007Z"/>
  </g>
  <defs>
    <clipPath id="coin-183108312321">
      <rect width="40.1144" height="39.5151" fill="#fff" transform="translate(.586426 .720703)"/>
    </clipPath>
  </defs>
</svg>