<svg xmlns="http://www.w3.org/2000/svg" fill="none" viewBox="0 0 50 49">
  <path fill="#FFED00" d="M47.7283 23.9069c0-8.0044-4.017-15.06951-10.1444-19.29036-3.3595-1.86541-7.2256-2.9305-11.3409-2.9305-12.9231 0-23.39925 10.47966-23.39925 23.40696 0 8.0044 4.01707 15.0695 10.14445 19.2903 3.3595 1.8654 7.2256 2.9306 11.3409 2.9306 12.9231 0 23.3992-10.4797 23.3992-23.407ZM6.95423 25.0942c0-5.1542 2.00614-9.9992 5.64947-13.6438 3.6434-3.64455 8.4868-5.65133 13.6393-5.65133s9.9959 2.00678 13.6393 5.65133c3.6433 3.6446 5.6495 8.4896 5.6495 13.6438 0 5.1541-2.0062 9.9992-5.6495 13.6438-3.6434 3.6445-8.4868 5.6513-13.6393 5.6513s-9.9959-2.0068-13.6393-5.6513c-3.64333-3.6446-5.64947-8.4897-5.64947-13.6438Z"/>
  <path fill="#FFED00" d="M40.5868 6.59937c.1785.16893.3569.33906.5306.51278 2.1798 2.18051 3.8925 4.72045 5.0878 7.54915 1.2384 2.9281 1.866 6.0383 1.866 9.2444 0 3.206-.6276 6.3163-1.866 9.2444-1.1953 2.8287-2.908 5.3686-5.0878 7.5491-2.1798 2.1805-4.7189 3.8938-7.5467 5.0895-2.9271 1.2388-6.0363 1.8666-9.2413 1.8666-2.8481 0-5.6196-.4972-8.2557-1.4761 3.0757 1.4869 6.525 2.3207 10.1708 2.3207 12.9231 0 23.3992-10.4796 23.3992-23.4069 0-7.5204-3.5463-14.2117-9.0569-18.49363Z"/>
  <path fill="#FFED00" d="M24.3294.5C11.4064.5.930176 10.9797.930176 23.907S11.4064 47.3139 24.3294 47.3139c12.9231 0 23.3993-10.4796 23.3993-23.4069S37.2525.5 24.3294.5Zm-6.2196 10.264 6.5358 6.502 6.5358-6.502 3.0601 3.0443-8.0664 8.0236c-.4228.4205-.9762.6302-1.5295.6302-.5533 0-1.1079-.2097-1.5294-.6302l-8.0653-8.0236 3.0601-3.0443h-.0012Zm-6.6819 19.651 6.5358-6.502-6.5358-6.502 3.0601-3.0444 8.0652 8.0236c.4061.4038.6336.9513.6336 1.5216s-.2275 1.1178-.6336 1.5215l-8.0652 8.0236-3.0601-3.0443v.0024Zm19.7415 6.6361-6.5358-6.502-6.5357 6.502-3.0601-3.0443 8.0652-8.0235c.8456-.8411 2.2145-.8411 3.0601 0l8.0652 8.0235-3.0601 3.0443h.0012Zm6.6819-6.6469-3.06 3.0443-8.0653-8.0236c-.8444-.841-.8444-2.2032 0-3.0443l8.0653-8.0235 3.06 3.0443-6.5357 6.502 6.5357 6.502v-.0012Z"/>
</svg>