<svg xmlns="http://www.w3.org/2000/svg" fill="none" viewBox="0 0 38 36">
  <g fill="#FFED00" clip-path="url(#coin-128301238291831)">
    <path d="M35.6125 17.5543c0-6.003-3.0513-11.30182-7.7055-14.46708C25.3555 1.68786 22.4181.890137 19.2924.890137 9.47752.890137 1.52051 8.74926 1.52051 18.4445c0 6.003 3.05128 11.3018 7.70546 14.4671 2.55153 1.3993 5.48893 2.197 8.61463 2.197 9.816 0 17.773-7.8591 17.773-17.5543h-.0011Zm-33.15461.8902c0-3.865 3.70891-7.4993 6.47593-10.23225C11.7008 5.47927 15.3804 3.97407 19.2935 3.97407c3.9131 0 7.5927 1.5052 10.3597 4.23818 2.767 2.73295 4.2909 6.36725 4.2909 10.23225 0 3.8649-1.5239 7.4992-4.2909 10.2322-2.767 2.733-6.4466 4.2382-10.3597 4.2382s-7.5927-1.5052-10.35968-4.2382c-2.76702-2.733-6.47593-6.3673-6.47593-10.2322Z"/>
    <path d="M30.188 4.57458c.1354.1259.2707.25403.4027.38438 1.6559 1.63556 2.9565 3.54073 3.8646 5.66204.9407 2.196 1.4168 4.529 1.4168 6.9333s-.4772 4.7373-1.4168 6.9333c-.9081 2.1213-2.2087 4.0253-3.8646 5.662-1.6559 1.6356-3.5848 2.9202-5.7326 3.817-2.2233.9292-4.5853 1.3994-7.0196 1.3994-2.1635 0-4.2684-.3732-6.2706-1.1075 2.3361 1.1153 4.9565 1.7403 7.7246 1.7403 9.816 0 17.773-7.8591 17.773-17.5543 0-5.6398-2.6937-10.65786-6.8786-13.86992h.0011ZM6.35757 16.8748c-1.05921 0-1.91763.8757-1.91763 1.9575 0 1.0818.85842 1.9575 1.91763 1.9575 1.0592 0 1.91762-.8768 1.91762-1.9575s-.85842-1.9575-1.91762-1.9575Z"/>
    <path d="M19.6417 16.8748c-1.0592 0-1.9176.8757-1.9176 1.9575 0 1.0818.8584 1.9575 1.9176 1.9575 1.0593 0 1.9177-.8768 1.9177-1.9575s-.8584-1.9575-1.9177-1.9575Z"/>
    <path d="M17.8394 0C8.02342 0 .0664062 7.85912.0664062 17.5543c0 9.6953 7.9570138 17.5544 17.7729938 17.5544 9.816 0 17.773-7.8591 17.773-17.5544C35.6124 7.85912 27.6554 0 17.8394 0Zm7.781 13.09 1.8297 2.6906-.9543 1.4674-2.8234-4.1591h1.9492l-.0012.0011ZM9.67145 22.2226H8.00086v-.3409c-.48279.2696-1.03665.4233-1.62547.4233-1.87025 0-3.3863-1.5475-3.3863-3.456 0-1.9085 1.51605-3.4561 3.3863-3.4561.58882 0 1.14268.1538 1.62547.4234v-2.7274h1.67059v9.1337ZM12.1768 13.09l1.9492 2.7731-1.0739 1.5497-2.9035-4.3217h2.0282V13.09Zm-1.9492 9.1326 6.2119-9.1326h1.9413l-6.2063 9.1326h-1.9469Zm12.7273 0h-1.6705v-.3409c-.4828.2696-1.0367.4233-1.6255.4233-1.8703 0-3.3863-1.5475-3.3863-3.456 0-1.9085 1.516-3.4561 3.3863-3.4561.5888 0 1.1427.1538 1.6255.4234v-2.7274h1.6705v9.1337Zm.5573 0 6.2187-9.1326h1.9413l-6.2503 9.1326h-1.9097Zm6.4037 0-2.0281-2.977.9543-1.4272 2.9836 4.4042h-1.9098Z"/>
  </g>
  <defs>
    <clipPath id="coin-128301238291831">
      <rect width="37" height="36" fill="#fff" transform="translate(.0664062)"/>
    </clipPath>
  </defs>
</svg>