<svg width="139" height="123" viewBox="0 0 139 123" fill="none" xmlns="http://www.w3.org/2000/svg">
<g clip-path="url(#clip0_81_147826)">
<path d="M127.07 59.2057C126.993 59.1036 126.93 58.9846 126.836 58.903C126.597 58.6953 126.566 58.3608 126.35 58.1445C126.336 58.1309 126.27 58.1689 126.268 58.1701C126.02 57.8173 125.778 57.4706 125.535 57.1239C125.4 56.9305 125.263 56.7384 125.131 56.5427C125.079 56.4653 125.05 56.3696 124.988 56.3016C124.721 56.0025 124.433 55.7205 124.178 55.4112C124.002 55.1971 123.832 54.9634 123.726 54.7109C123.639 54.5062 123.346 54.3979 123.351 54.3473C123.383 54.0287 123.111 53.915 122.987 53.7124C122.899 53.5693 122.811 53.3626 122.559 53.4694C122.55 53.4728 122.487 53.3451 122.477 53.2534C122.343 53.0848 121.987 53.1238 122.062 52.7513C122.068 52.7209 121.995 52.666 121.949 52.6344C121.846 52.5638 121.714 52.5208 121.633 52.4315C120.919 51.644 120.22 50.8441 119.505 50.0581C119.095 49.6068 118.666 49.1741 118.243 48.7352C118.02 48.5035 117.649 48.4407 117.515 48.0973C117.505 48.0718 117.322 48.114 117.22 48.1247C117.213 48.1601 117.206 48.1956 117.198 48.2313C116.939 47.9912 116.679 47.7501 116.4 47.491C116.808 47.4336 116.86 48.1152 117.382 47.8772L115.748 46.9443C115.822 46.8741 115.871 46.8266 115.921 46.7794C115.879 46.7422 115.821 46.6654 115.798 46.6744C115.418 46.8277 115.278 46.4491 115.054 46.3079C114.752 46.1176 114.535 45.7979 114.262 45.5554C114.163 45.4678 113.985 45.4715 113.883 45.3862C112.549 44.27 111.106 43.3075 109.658 42.3496C109.154 42.0154 108.648 41.6815 108.133 41.3637C107.504 40.9757 106.873 40.5882 106.226 40.2318C105.637 39.9071 105.024 39.625 104.486 39.3555C104.495 39.219 104.523 39.1249 104.498 39.1072C104.42 39.053 104.325 39.0136 104.232 38.9947C104.099 38.9682 103.945 38.9992 103.827 38.9479C102.591 38.4061 101.373 37.8216 100.124 37.3104C98.6096 36.6903 97.0811 36.1008 95.5387 35.5543C94.504 35.1883 93.438 34.9072 92.3796 34.6116C91.2187 34.2879 90.0573 33.9639 88.8837 33.6914C87.9248 33.469 86.9499 33.3165 85.9803 33.1431C85.0822 32.9826 84.1852 32.8145 83.2824 32.6883C82.4262 32.5682 81.5637 32.4938 80.7031 32.4074C79.7493 32.3114 78.7962 32.1969 77.8395 32.1436C77.0351 32.0983 76.2265 32.1296 75.4119 32.1814C75.5138 32.1901 75.6157 32.2031 75.7178 32.207C81.2667 32.4107 86.7252 33.2046 92.0831 34.6744C96.4239 35.8654 100.589 37.493 104.574 39.5879C107.838 41.3031 110.906 43.3119 113.768 45.6372C114.367 46.1237 114.995 46.5738 115.59 47.0643C115.849 47.2772 116.06 47.5489 116.292 47.7949C116.324 47.829 116.345 47.8755 116.38 47.9059C116.897 48.3528 117.436 48.7781 117.931 49.2491C118.448 49.7417 118.924 50.2778 119.418 50.7941C119.434 50.811 119.451 50.8286 119.466 50.8458C120.188 51.6296 120.934 52.3936 121.624 53.2042C122.334 54.0376 122.992 54.9159 123.67 55.7767C123.735 55.8593 123.78 55.9581 123.877 56.1195C123.743 56.0345 123.674 55.9897 123.518 55.89C123.768 56.3795 124.034 56.6984 124.439 56.9164C124.614 57.0105 124.749 57.2028 124.865 57.3765C125.01 57.5953 125.118 57.8403 125.285 58.1573C125.144 58.0325 125.072 57.967 124.998 57.9022L124.946 57.9403C125.222 58.4201 125.499 58.8999 125.72 59.2809L126.368 59.6511C126.221 59.6825 126.169 59.6937 126.169 59.6937C126.182 59.8429 126.179 59.9877 126.213 60.1236C126.241 60.242 126.29 60.3679 126.366 60.4607C126.525 60.654 126.707 60.8278 126.947 61.0809C126.78 61.069 126.73 61.0649 126.609 61.0557C126.998 61.5967 127.377 62.0376 127.64 62.5397C127.713 62.6804 127.84 62.8854 127.835 63.1251C127.831 63.322 128.048 63.5227 128.164 63.724C128.254 63.8786 128.357 64.0283 128.417 64.1941C128.462 64.3166 128.395 64.5232 128.468 64.5838C128.624 64.713 128.59 64.8497 128.63 65.0036C128.701 65.2759 128.914 65.5148 129.083 65.7577C129.148 65.8515 129.252 65.9177 129.407 66.0576C129.264 66.0329 129.209 66.0232 129.136 66.0102C129.158 66.0786 129.179 66.146 129.223 66.2822C128.817 65.9582 128.521 65.6444 128.417 65.1859C128.412 65.1632 128.394 65.144 128.385 65.1224C128.296 64.9184 128.207 64.7145 128.093 64.4516C127.797 64.4143 127.656 64.1957 127.568 63.7784C127.517 63.5369 127.289 63.3317 127.135 63.1134C127.062 63.0089 126.96 62.9221 126.901 62.8106C126.614 62.2749 126.366 61.717 126.047 61.2023C125.834 60.8598 125.525 60.5769 125.261 60.269C125.249 60.3122 125.235 60.3598 125.222 60.4074C125.176 60.417 125.13 60.4263 125.083 60.436C125.077 60.3156 125.064 60.1952 125.067 60.075C125.068 60.006 125.132 59.909 125.105 59.8729C124.793 59.4661 124.469 59.0695 124.148 58.6698C124.126 58.6427 124.082 58.616 124.084 58.5905C124.102 58.265 123.889 58.1353 123.655 57.96C123.399 57.7677 123.237 57.4523 123.023 57.2009C122.744 56.8726 122.451 56.5548 122.167 56.2299C121.948 55.9779 121.733 55.7219 121.447 55.5169C121.595 55.7397 121.732 55.9709 121.893 56.1839C122.452 56.92 123.024 57.6464 123.58 58.385C123.649 58.4784 123.637 58.6294 123.691 58.7405C123.885 59.1476 124.071 59.5601 124.297 59.9494C124.464 60.2363 124.689 60.4883 124.884 60.7591C124.917 60.8051 124.93 60.865 124.952 60.9187C124.93 60.9434 124.909 60.9682 124.886 60.9926C124.763 60.894 124.613 60.815 124.523 60.692C124.386 60.5063 124.298 60.2849 124.178 60.0869C123.856 59.5586 123.552 59.0177 123.198 58.5126C122.807 57.9571 122.369 57.4346 121.948 56.9011C121.906 56.8486 121.836 56.8191 121.779 56.7792C121.752 56.7986 121.726 56.8182 121.7 56.837C122.065 57.3831 122.431 57.9292 122.796 58.4753C122.583 58.3289 122.283 58.3064 122.245 57.959C122.231 57.8283 121.951 57.7442 121.838 57.6023C121.56 57.2524 121.282 56.9043 120.95 56.6001C120.897 56.5514 120.898 56.4475 120.861 56.3754C120.771 56.2021 120.771 55.956 120.493 55.9242C120.47 55.922 120.218 55.8135 120.431 55.6725C120.394 55.6304 120.36 55.5847 120.318 55.5469C120.022 55.2741 119.722 55.0042 119.427 54.7289C119.268 54.5807 119.112 54.4288 118.963 54.2699C118.45 53.7208 117.946 53.1624 117.428 52.6172C117.052 52.2216 116.668 51.8335 116.269 51.461C116.134 51.3345 115.944 51.2682 115.803 51.1875C115.366 50.8196 114.865 50.5167 114.531 50.0846C114.18 49.6308 113.696 49.4104 113.297 49.0551C113.278 49.0762 113.258 49.0978 113.238 49.1185C113.327 49.2014 113.416 49.2853 113.506 49.3683C113.492 49.3829 113.479 49.397 113.465 49.4112C113.254 49.2109 113.043 49.0095 112.808 48.7868C112.814 48.7727 112.85 48.6848 112.875 48.625C112.352 48.2719 111.772 48.0142 111.383 47.5846C110.895 47.0463 110.283 46.749 109.7 46.378C109.217 46.0699 108.742 45.7502 108.205 45.3982C108.203 45.3991 108.121 45.4442 108.039 45.4896C108.022 45.4724 108.005 45.4551 107.988 45.4382C108.03 45.3806 108.071 45.3237 108.088 45.2997C107.813 45.1191 107.542 44.9245 107.255 44.7613C107.053 44.6459 106.808 44.6024 106.615 44.4767C106.228 44.2251 105.862 43.9388 105.466 43.6512C105.534 43.6223 105.589 43.5981 105.715 43.5439C105.196 43.3817 104.732 43.2363 104.218 43.0761C104.101 43.0092 103.931 42.9055 103.754 42.8155C103.699 42.7872 103.583 42.8148 103.567 42.7815C103.355 42.3562 103.032 42.2214 102.521 42.4357C102.685 42.438 102.757 42.4429 102.828 42.4387C102.962 42.4307 103.041 42.4014 103.094 42.6139C103.135 42.772 103.425 42.8659 103.603 42.9893C104.306 43.4741 105.114 43.767 105.801 44.2984C106.352 44.725 107.038 44.9763 107.659 45.3146C107.751 45.3648 107.818 45.4632 107.89 45.5452C107.932 45.5929 107.955 45.6566 107.997 45.7043C108.028 45.7389 108.074 45.7603 108.113 45.7862C108.747 46.2055 109.46 46.5245 109.842 47.2593L109.918 47.1902C109.878 47.1247 109.839 47.0589 109.8 46.9933C109.817 46.9792 109.833 46.9648 109.85 46.9507C109.921 47.0166 109.991 47.0835 110.063 47.1479C110.202 47.2707 110.352 47.3826 110.478 47.5162C110.559 47.6029 110.607 47.7211 110.609 47.8892L112.628 49.0419C112.657 49.1686 112.645 49.3459 112.725 49.4191C112.91 49.5853 113.154 49.6838 113.349 49.8404C113.577 50.0222 113.778 50.2373 113.992 50.4375C114.351 50.7733 114.754 51.0725 115.058 51.452C115.455 51.9461 116.008 52.2503 116.43 52.7003C116.808 53.1027 117.127 53.5592 117.497 53.9702C117.905 54.4235 118.351 54.8412 118.757 55.2955C118.918 55.4752 118.998 55.7244 119.148 55.9166C119.264 56.0669 119.426 56.1833 119.575 56.306C119.923 56.5945 120.228 56.8944 120.329 57.3761C120.382 57.6267 120.573 57.8525 120.723 58.0748C120.752 58.1186 120.88 58.0949 120.965 58.1028C121.814 59.3134 122.826 60.4287 123.369 61.886C123.399 61.7804 123.421 61.7022 123.442 61.6262C123.568 61.8027 123.681 61.9619 123.787 62.1104C123.514 62.1851 123.711 62.3082 123.797 62.423C123.9 62.5598 124.003 62.6963 124.156 62.8996C124.018 62.8588 123.975 62.8465 123.818 62.8005C124.365 63.2765 124.089 64.0128 124.729 64.3892C124.292 64.5292 124.259 64.2272 124.164 64.0889C123.816 63.5886 123.499 63.0669 123.187 62.5439C123.127 62.4439 123.139 62.3009 123.114 62.1575C123.009 62.1088 122.87 62.0452 122.694 61.9639C122.775 62.1517 122.855 62.3378 122.958 62.5742C122.945 62.5908 122.877 62.6517 122.844 62.728C122.826 62.7679 122.849 62.8505 122.884 62.8834C122.914 62.9133 122.986 62.9124 123.038 62.9056C123.094 62.8981 123.148 62.8688 123.203 62.849C123.186 62.9076 123.149 62.9684 123.156 63.0241C123.168 63.1256 123.203 63.2238 123.233 63.3224C123.392 63.8482 123.547 64.3755 123.717 64.8977C123.747 64.9925 123.845 65.0647 123.902 65.1527C123.966 65.2499 124.107 65.3223 123.935 65.4783C123.874 65.5339 123.952 65.7423 123.922 65.9045C123.673 65.4941 123.424 65.083 123.175 64.6722C123.151 64.6322 123.096 64.5738 123.107 64.5546C123.35 64.133 122.889 64.0297 122.752 63.7883C122.649 63.6076 122.404 63.4998 122.322 63.3158C122.101 62.816 121.965 62.2773 121.595 61.8503C121.562 61.8127 121.571 61.7396 121.55 61.6239L121.401 61.8833C121.355 61.8395 121.307 61.8103 121.28 61.7669C121.039 61.386 120.805 61.001 120.561 60.6219C120.527 60.5685 120.459 60.5075 120.402 60.5022C119.944 60.4611 119.907 60.1167 119.813 59.7711C119.757 59.5625 119.578 59.3863 119.449 59.1985C119.432 59.1729 119.362 59.1688 119.36 59.1491C119.292 58.61 118.888 58.7755 118.552 58.7078C118.325 58.6621 118.145 58.3847 118.034 58.1767C118.028 58.1015 118.048 58.0069 118.01 57.9539C117.799 57.6557 117.572 57.3684 117.354 57.0764C116.965 56.5566 116.581 56.0328 116.187 55.5165C116.036 55.3191 115.85 55.148 115.703 54.9473C115.596 54.8026 115.563 54.5902 115.435 54.4786C115.287 54.3489 115.113 54.2679 115.099 54.0387C115.096 54.0053 115.037 53.9531 114.999 53.9481C114.445 53.8788 114.223 53.3716 113.842 53.0758C113.532 52.8355 113.23 52.5857 112.891 52.314C112.82 52.626 112.975 52.7318 113.162 52.8178C112.837 52.7774 112.604 52.4852 112.666 52.1871C112.759 52.2156 112.852 52.244 112.967 52.2795C112.685 51.832 112.314 51.5429 111.841 51.3855C111.887 51.2143 111.641 50.6411 111.489 50.5284C111.287 50.3798 111.096 50.217 110.88 50.0446L110.784 50.214C110.442 49.9384 110.121 49.6764 109.797 49.4196C109.444 49.1407 109.079 48.8769 108.735 48.587C108.386 48.2924 108.057 47.9746 107.719 47.6671C107.742 47.6409 107.767 47.6143 107.79 47.5881C108.051 47.7816 108.312 47.9751 108.572 48.1682C108.6 48.1278 108.627 48.0877 108.655 48.0472C108.177 47.7392 107.699 47.4311 107.243 47.1367C107.156 47.2203 107.093 47.2802 107.051 47.3201L105.748 46.5762C105.717 46.6177 105.685 46.6595 105.653 46.701C105.746 46.7867 105.829 46.8843 105.931 46.9559C106.228 47.1631 106.537 47.3541 106.833 47.562C107.085 47.7387 107.3 48.0132 107.578 48.0991C108.082 48.2553 108.357 48.6796 108.755 48.9539C108.96 49.0947 109.084 49.353 109.286 49.4992C109.438 49.6085 109.613 49.67 109.773 49.7911C110.041 49.9923 110.263 50.1088 110.406 50.4756C110.541 50.8239 110.902 51.152 111.391 51.1494C111.465 51.1492 111.604 51.2414 111.601 51.2825C111.578 51.5993 111.791 51.2951 111.846 51.382C111.843 51.8378 112.212 52.0667 112.449 52.3779C112.544 52.5018 112.613 52.6451 112.718 52.8201C112.826 52.8711 113.003 52.9557 113.225 53.061C113.194 52.9578 113.173 52.8872 113.151 52.8166C113.239 52.9229 113.35 53.0172 113.411 53.1371C113.557 53.4219 113.68 53.7182 113.83 54.0483C113.849 54.0337 113.917 53.9811 114.002 53.9153C114.277 54.2433 114.513 54.6237 114.842 54.8909C115.192 55.1757 115.37 55.7118 115.949 55.7048C116.023 55.7037 116.1 55.8708 116.125 56.0152L115.778 55.8174C115.768 55.8328 115.758 55.8476 115.747 55.863C116.133 56.3527 116.52 56.8427 116.929 57.3607C117.139 57.0054 117.291 57.1056 117.424 57.4681C117.329 57.3979 117.269 57.3531 117.192 57.297C116.971 57.7416 117.366 57.9411 117.55 58.2107C117.723 58.463 117.937 58.6866 118.115 58.9354C118.173 59.017 118.175 59.1387 118.203 59.2417C118.157 59.2679 118.11 59.2942 118.064 59.3205C117.923 59.1134 117.781 58.9079 117.643 58.699C117.599 58.632 117.579 58.5474 117.528 58.4876C117.186 58.0862 116.837 57.6911 116.495 57.2906C116.189 56.9324 115.885 56.5714 115.588 56.2061C115.568 56.1803 115.609 56.1045 115.622 56.0501C115.371 55.8514 115.092 55.6512 114.837 55.4238C114.681 55.2847 114.561 55.1038 114.426 54.9428C114.423 54.9436 114.483 54.9222 114.542 54.9007C114.286 54.8817 114.186 54.5587 113.863 54.597C113.716 54.6143 113.532 54.3562 113.372 54.214C113.164 54.0285 112.977 53.8164 112.757 53.6472C112.348 53.3324 111.907 53.0593 111.507 52.7347C110.919 52.2564 110.345 51.7584 109.785 51.2456C109.591 51.0673 109.458 50.8209 109.317 50.5956C109.264 50.5274 109.218 50.4532 109.156 50.3935C109.112 50.3511 109.048 50.3316 108.995 50.2967C108.717 50.1132 108.44 49.9287 108.163 49.7443C108.002 49.6376 107.841 49.5321 107.682 49.4226C107.103 49.0255 106.534 48.6142 105.944 48.2359C105.685 48.0701 105.384 47.9692 105.1 47.8426C105.072 47.8299 105.032 47.844 104.998 47.845C104.994 47.8813 104.99 47.9172 104.986 47.9535C104.668 47.7531 104.35 47.5516 104.032 47.3512C104.046 47.327 104.061 47.3035 104.075 47.2796C104.261 47.4012 104.447 47.523 104.646 47.6533C104.632 47.297 103.573 46.552 102.792 46.3806C102.869 46.4434 102.944 46.5064 103.021 46.5692C103.009 46.5909 102.996 46.6132 102.984 46.6349L101.799 45.959C101.808 45.9367 101.816 45.9141 101.825 45.8918C101.958 45.918 102.093 45.9452 102.226 45.9714C102.23 45.9521 102.234 45.9322 102.238 45.9128C101.806 45.7766 101.359 45.6753 100.946 45.495C100.535 45.315 100.158 45.0569 99.7176 44.8873C99.8075 44.9732 99.8977 45.0584 100.002 45.1576C99.7314 45.128 99.7364 45.1251 99.6032 44.8343C99.5847 44.7933 99.4365 44.7605 99.4284 44.7732C99.2776 45.0187 99.0154 44.8748 98.9145 44.8197C98.699 44.7032 98.5455 44.4724 98.3691 44.2861C98.2707 44.1822 98.192 44.0492 98.0757 43.9738C97.9593 43.8983 97.8069 43.8787 97.6554 43.8301C97.587 43.8808 97.4994 43.9451 97.4053 44.0149C97.2235 43.8337 97.0639 43.5402 96.8787 43.5233C96.6232 43.5001 96.5386 43.2797 96.3287 43.2356C96.1017 43.1883 95.8771 43.1079 95.6678 43.0081C95.4254 42.8928 95.2281 42.6855 94.9081 42.7809C94.8447 42.7999 94.7183 42.6051 94.6204 42.5073C94.1288 42.6529 93.7445 42.3282 93.3305 42.1765C93.0164 42.0615 92.7566 41.8226 92.3755 41.9243C92.2745 41.9514 92.1383 41.8416 92.0173 41.7972C91.8202 41.725 91.6182 41.6656 91.4279 41.5784C91.3681 41.5508 91.3402 41.4542 91.2971 41.3885C91.3251 41.3452 91.3541 41.3017 91.3821 41.2584C90.9179 41.2148 90.4534 41.1718 89.9898 41.1285C89.9899 41.1096 89.9897 41.0914 89.9904 41.0729C90.0791 41.0643 90.1682 41.0551 90.2576 41.0468C90.2622 41.0157 90.2671 40.984 90.2718 40.9529C89.5343 41.1417 88.9278 40.76 88.2402 40.6325C88.1257 40.6617 87.9651 40.7026 87.8042 40.744L87.8171 40.7415C87.6084 40.6939 87.3996 40.6463 87.1915 40.5991C87.1871 40.5867 87.182 40.574 87.1773 40.5622C87.3518 40.5573 87.5264 40.5525 87.7016 40.548C87.7049 40.5293 87.7081 40.5106 87.7104 40.4921C87.1701 40.3573 86.6291 40.2221 86.0888 40.0873C86.0792 40.1229 86.0685 40.1588 86.0589 40.1944C86.262 40.2503 86.4646 40.3059 86.6677 40.3618C86.6598 40.4075 86.6512 40.4528 86.6436 40.4978C86.476 40.4918 86.3084 40.4859 86.1408 40.4799C86.1427 40.4867 86.1446 40.4935 86.1468 40.4997C85.7994 40.4372 85.4499 40.3842 85.1055 40.3093C84.3658 40.1479 83.6267 39.9811 82.8916 39.8001C82.7856 39.7741 82.7116 39.6101 82.6072 39.5899C82.2629 39.5234 81.9121 39.4886 81.5626 39.4528C81.4313 39.4395 81.296 39.4577 81.1488 39.3787C81.2454 39.3375 81.342 39.2964 81.4678 39.2431C81.3484 39.1816 81.2543 39.1262 81.1543 39.0839C80.995 39.016 80.8196 38.8163 80.7105 39.1688C80.6911 39.2301 80.4115 39.2375 80.2559 39.2236C79.9682 39.1976 79.6834 39.1321 79.3961 39.0924C78.8912 39.0222 78.3867 38.9514 77.8799 38.8974C77.6901 38.8771 77.4939 38.9199 77.3033 38.9024C76.791 38.8552 76.2809 38.7869 75.7688 38.7365C75.5843 38.7184 75.3927 38.7028 75.2119 38.733C74.9491 38.7771 74.7593 38.7108 74.5948 38.5008C74.5473 38.44 74.4166 38.4443 74.2988 38.475C74.3491 38.5194 74.4004 38.5634 74.4507 38.6078C74.4091 38.6417 74.3642 38.7074 74.328 38.7032C74.2245 38.6902 74.0882 38.6798 74.0309 38.6117C73.8703 38.4221 73.8841 38.411 73.5549 38.4116L73.8134 38.5592L73.7993 38.6474C73.4684 38.6107 73.1378 38.552 72.8068 38.5457C72.5416 38.5408 72.2744 38.6245 72.0086 38.625C71.5554 38.6255 71.1022 38.5856 70.649 38.5746C70.5395 38.5721 70.4274 38.6374 70.3182 38.6343C69.6607 38.6169 69.0035 38.5643 68.3465 38.5719C67.8022 38.5779 67.1929 38.5164 66.7366 38.7398C66.3887 38.9099 66.1949 38.6635 65.9108 38.7334C65.2922 38.8855 64.6456 38.9237 64.0104 39.0055C63.7383 39.0402 63.4638 39.0588 63.1928 39.1015C62.7226 39.1763 62.2576 39.2869 61.7853 39.3366C61.5131 39.3655 61.2304 39.2806 60.9541 39.2908C60.7503 39.2979 60.5486 39.3761 60.3368 39.4247C60.3445 39.4472 60.3613 39.4955 60.3864 39.5682C60.2415 39.5456 60.1175 39.5266 59.9929 39.5073C59.9873 39.5214 59.9821 39.5349 59.9765 39.549C60.0604 39.5862 60.1441 39.6241 60.2495 39.6711C60.2079 39.7009 60.1771 39.7376 60.1591 39.7331C60.0392 39.6984 59.9235 39.6504 59.8037 39.6141C59.2539 39.4484 58.7735 39.7815 58.2549 39.8318C57.9266 39.8641 57.6016 39.9683 57.26 39.8654C57.182 39.8423 57.0554 39.979 56.9637 40.0345C56.7301 40.0953 56.4949 40.166 56.2552 40.2159C55.9426 40.2811 55.6244 40.3216 55.3129 40.3906C55.1999 40.4158 55.1041 40.5158 54.9914 40.542C54.4082 40.6765 53.8255 40.8162 53.2367 40.9203C52.6727 41.0197 52.2117 41.3449 51.7158 41.5613C51.6164 41.5424 51.6108 41.1146 51.4271 41.5257C51.3577 41.6803 51.0839 41.7741 50.8855 41.8337C50.5375 41.9378 50.1749 41.9942 49.8231 42.069C49.8242 42.054 49.8292 41.9877 49.8385 41.8606C49.5964 42.0269 49.3863 42.1702 49.2002 42.2977C49.0742 42.2677 48.9604 42.2036 48.8677 42.2264C48.6196 42.288 48.3177 42.323 48.1544 42.4866C47.9384 42.7023 47.6769 42.6304 47.4614 42.7402C47.0476 42.9509 46.6469 43.1862 46.2366 43.4054C46.1252 43.4652 45.999 43.4977 45.8861 43.5542C45.87 43.5623 45.8879 43.6375 45.8878 43.6391C45.627 43.7157 45.3193 43.7639 45.0511 43.8939C44.6458 44.0912 44.2735 44.356 43.8762 44.5711C43.707 44.6629 43.499 44.6816 43.3266 44.7692C42.83 45.0214 42.3465 45.3009 41.8491 45.5502C41.6004 45.6748 41.3219 45.738 41.0755 45.8656C40.8994 45.9568 40.7591 46.1146 40.5959 46.2321C40.4563 46.3326 40.3017 46.4105 40.1627 46.5114C39.6655 46.8727 39.1721 47.2387 38.6134 47.5493C38.6625 47.4761 38.7117 47.403 38.7895 47.2869C37.785 47.8096 36.8704 48.3663 36.2455 49.3328C36.2018 49.261 36.1646 49.1994 36.1133 49.115C35.9409 49.3523 35.7805 49.5727 35.5834 49.8445C35.5806 49.6939 35.579 49.6074 35.576 49.4501C34.6495 50.2321 33.7693 50.9747 32.7858 51.8048C32.7844 51.6288 32.7842 51.5513 32.783 51.4123C32.7064 51.5019 32.6605 51.5564 32.6136 51.6111C32.2186 51.7847 31.9649 52.0678 31.9125 52.5094C31.6458 52.4756 31.2708 52.7767 31.0475 53.2673C31.2278 53.1299 31.3387 53.0566 31.4361 52.9682C31.5982 52.8196 31.7516 52.6603 31.908 52.5044C32.1417 52.2016 32.3753 51.9005 32.6091 51.6003C32.7038 51.9383 32.4879 52.1409 32.2785 52.3406C32.2306 52.3857 32.1084 52.3851 32.0948 52.4292C31.9027 53.0305 31.2079 53.149 30.9192 53.6705C30.8087 53.8699 30.5398 53.9765 30.3613 54.1453C30.2843 54.2182 30.2538 54.3407 30.2013 54.4399C30.1752 54.49 30.1583 54.5701 30.1187 54.5845C29.9165 54.6567 29.7181 54.6817 29.642 54.9617C29.5884 55.1607 29.394 55.3213 29.2923 55.4591C29.1302 55.4364 29.0099 55.4196 28.9077 55.4057C29.0041 55.2714 29.1246 55.1049 29.2446 54.938C29.2201 54.9175 29.1951 54.8966 29.1703 54.8767C29.0964 54.9571 29.0297 55.0466 28.9465 55.116C28.7698 55.2628 28.571 55.3863 28.4059 55.5447C28.3042 55.6421 28.2645 55.8038 28.1657 55.9063C27.7892 56.2994 27.4218 56.7069 27.0085 57.0593C26.7141 57.3101 26.3476 57.4754 26.0207 57.6895C25.6725 57.9178 25.34 58.1691 24.9869 58.3888C24.8514 58.4736 24.6788 58.4994 24.5237 58.5523L24.4594 58.4374C24.1631 58.7736 23.8662 59.1093 23.5504 59.4681C25.4171 59.3644 27.2019 59.2675 28.9868 59.1648C30.4437 59.0806 31.8991 58.9791 33.3561 58.9048C34.0463 58.8693 34.7393 58.8806 35.4306 58.8663C36.0319 58.8541 36.6334 58.8255 37.2352 58.821C38.1615 58.8141 39.0876 58.826 40.0138 58.8206C40.3641 58.819 40.7202 58.7466 41.0622 58.7897C41.3821 58.8299 41.7523 58.6824 41.9746 58.7855C42.2686 58.9212 42.5356 58.8754 42.8121 58.9123C42.955 58.9313 43.1072 58.9095 43.2509 58.8838C44.2572 58.7078 45.2794 59.0222 46.2001 58.7587C46.2895 58.8656 46.3336 58.9641 46.3805 58.9653C46.5647 58.9709 46.7532 58.9633 46.9345 58.9294C47.3485 58.8522 47.7353 58.9175 48.1276 59.0583C48.279 59.1127 48.4681 59.0536 48.6392 59.0649C48.7138 59.0696 48.7849 59.1192 48.8581 59.1495C48.7976 59.1849 48.735 59.2528 48.676 59.2496C48.4039 59.2367 48.1327 59.1789 47.8619 59.184C47.5292 59.1907 47.1985 59.2603 46.8661 59.2738C46.2616 59.2974 45.6565 59.3034 45.0519 59.3071C44.8318 59.3082 44.6081 59.2537 44.3913 59.2764C44.2343 59.2921 44.0877 59.4438 43.9334 59.4478C42.867 59.4785 41.8007 59.4902 40.7343 59.4994C40.4534 59.502 40.1724 59.4757 39.8573 59.4604C39.8566 59.5596 39.8565 59.6534 39.8563 59.7717C39.6476 59.7703 39.4382 59.7684 39.2285 59.7672C39.2228 59.7483 39.2177 59.7298 39.2124 59.7103C39.392 59.6664 39.572 59.6218 39.7516 59.5779C39.7343 59.5219 39.7175 59.4662 39.7005 59.4096C39.3797 59.5367 39.0589 59.6638 38.7192 59.7982C38.7176 59.7002 38.7163 59.6262 38.7144 59.5157C38.4243 59.9302 38.0419 59.7679 37.7001 59.7719C37.4598 59.7754 37.2175 59.7375 36.9788 59.7526C36.5131 59.7822 36.0493 59.8573 35.5833 59.876C34.849 59.9053 34.1137 59.8887 33.3794 59.918C32.654 59.9474 31.9297 60.0211 31.2047 60.0499C31.0374 60.0565 30.8652 59.9607 30.7204 59.9191C30.4962 59.9821 30.2642 60.0891 30.0262 60.1071C28.3058 60.2367 26.5838 60.3473 24.8621 60.4663C24.1346 60.5167 23.4082 60.5752 22.6806 60.6215C22.5792 60.6278 22.4752 60.584 22.3717 60.5637C22.3881 60.6372 22.4041 60.7114 22.4211 60.7853C22.507 60.7874 22.5944 60.7986 22.6792 60.7911C27.7066 60.3431 32.7433 60.0963 37.7898 60.0568C38.3853 60.0519 38.9811 60.0218 39.5769 60.0048C40.2137 59.9865 40.8509 59.9618 41.4883 59.9554C42.1654 59.9486 42.8432 59.9578 43.5208 59.9645C44.1508 59.9711 44.781 59.9803 45.4107 59.9975C45.5241 60.0005 45.7363 59.934 45.6363 60.197C45.8437 60.1879 46.0743 60.2331 46.2541 60.1572C46.6291 59.9985 46.9517 59.9201 47.2729 60.2632C47.4396 60.4406 47.8904 60.3565 48.0595 60.1609C48.0954 60.1197 48.1566 60.1003 48.1202 60.1223C48.3105 60.231 48.447 60.3763 48.5812 60.3731C49.0593 60.3621 49.5247 60.6599 50.0144 60.4227C50.0857 60.3885 50.2104 60.4811 50.3122 60.4899C50.64 60.519 50.9678 60.5366 51.2953 60.559C51.2744 60.5956 51.2514 60.636 51.2687 60.6056C51.4181 60.6637 51.5598 60.7191 51.7023 60.7749C51.6983 60.8351 51.6946 60.8948 51.6913 60.9554C51.5316 61.0552 51.3768 61.1289 51.2743 60.77C51.2086 60.9744 51.1741 61.0823 51.1245 61.2383C51.039 61.2052 50.881 61.1364 50.7169 61.0855C50.6431 61.0622 50.5462 61.0489 50.4785 61.0769C50.0194 61.2633 49.5522 61.1546 49.0867 61.139C48.9093 61.1332 48.6915 61.2195 48.2615 61.4283C48.2241 61.4464 48.123 61.3311 48.087 61.2028L44.8965 61.5028L44.8565 61.6117C44.9551 61.6449 45.0532 61.705 45.1523 61.7056C45.5775 61.7081 46.003 61.6754 46.4275 61.6906C46.6733 61.6992 46.9149 61.7886 47.1616 61.8159C47.4613 61.8495 47.7645 61.8556 48.0661 61.8772C48.2123 61.8874 48.3584 61.9066 48.5043 61.9216C48.5138 61.9583 48.5223 61.9953 48.5318 62.0319C48.4088 62.0803 48.2739 62.1884 48.1655 62.1668C47.4739 62.0246 46.7881 62.0396 46.094 62.1437C45.8818 62.1756 45.6587 62.133 45.4352 62.1618C45.7528 62.4723 46.1915 62.2207 46.5523 62.4827C46.2728 62.5346 45.993 62.6259 45.7133 62.6292C45.3642 62.6331 45.0287 62.6967 44.6535 62.6224C44.1816 62.5291 43.6564 62.7132 43.1528 62.7589C42.9872 62.7738 42.8159 62.7139 42.6484 62.7195C42.0345 62.7393 41.4153 62.7282 40.8093 62.8135C40.3658 62.8762 39.9218 63.068 39.4792 62.9865C39.1237 62.9209 38.8226 63.0222 38.4911 63.1062C38.5548 63.127 38.6186 63.1477 38.6824 63.1685C38.6788 63.1805 38.675 63.1915 38.6715 63.2034C38.5093 63.1866 38.3471 63.1697 38.1662 63.1511C38.1641 63.1376 38.1531 63.0589 38.1455 63.006C36.9804 63.093 35.8599 63.1767 34.6865 63.2639C34.6865 63.2639 34.6689 63.332 34.6556 63.3828C34.4201 63.3389 34.1874 63.2727 33.9526 63.2621C33.8218 63.2566 33.6869 63.382 33.5535 63.3824C33.2877 63.3829 33.0218 63.3389 32.7254 63.3096C32.7306 63.2689 32.7391 63.2006 32.7457 63.1516C32.3285 63.2763 31.9047 63.4023 31.4826 63.5283C31.3273 63.2158 31.1307 63.3628 30.9141 63.5436C31.0363 63.583 31.1585 63.6569 31.2808 63.6559C32.247 63.6479 33.213 63.6275 34.1793 63.608C34.6551 63.5982 35.1319 63.565 35.607 63.5779C35.781 63.5826 35.9519 63.6909 36.1906 63.7753C36.116 63.6726 36.0916 63.639 36.0684 63.6076C36.215 63.5712 36.3626 63.5344 36.516 63.4961C36.7638 63.8482 37.3929 63.8247 38.1611 63.4091C38.2351 63.6381 38.3598 63.683 38.6234 63.6475C39.0098 63.5957 39.4142 63.7007 39.81 63.6971C40.2199 63.6933 40.6299 63.636 41.0399 63.6075C41.326 63.5873 41.6128 63.5659 41.8994 63.5649C42.4486 63.5633 42.9976 63.5706 43.5461 63.5875C43.6824 63.5921 43.8172 63.6468 43.9518 63.6817C43.9963 63.6931 44.0542 63.7442 44.0777 63.7305C44.4927 63.4786 44.9082 63.5471 45.3123 63.7391C45.5167 63.8361 45.6692 63.6927 45.8428 63.6824C46.3215 63.6545 46.803 63.6693 47.2829 63.6709C47.5397 63.6718 47.7974 63.6667 48.0522 63.6912C48.1775 63.7035 48.2962 63.7779 48.4293 63.8283C48.5011 63.7558 48.5913 63.6641 48.6917 63.5617C48.7287 63.6322 48.7461 63.7212 48.7862 63.7317C49.001 63.7902 49.2215 63.8272 49.4395 63.8759C49.5305 63.8966 49.6724 63.9027 49.6994 63.9592C49.786 64.1429 49.8757 64.1299 50.0215 64.037C50.0617 64.0114 50.1509 64.0639 50.2177 64.0807C50.1819 64.1434 50.1509 64.2582 50.1111 64.2618C49.6445 64.3015 49.1774 64.3278 48.7092 64.3445C48.6647 64.3462 48.6169 64.2556 48.5631 64.2001C48.4945 64.2713 48.4254 64.3421 48.3388 64.4317C48.495 64.5382 48.6592 64.6509 48.8441 64.7778C49.4588 64.4943 49.9435 65.245 50.5427 65.0752C50.6425 65.1955 50.733 65.3048 50.8385 65.4325C50.5439 65.4503 50.2381 65.4749 49.932 65.4812C49.8727 65.4827 49.8169 65.3933 49.7509 65.3736C49.6627 65.348 49.5282 65.3058 49.4795 65.3479C49.0246 65.7416 48.6118 65.3776 48.1824 65.3003C48.0757 65.2814 47.9385 65.2812 47.8521 65.3332C47.4694 65.5615 46.9467 65.3339 46.6109 65.7306C46.5654 65.7844 46.3811 65.7401 46.2678 65.7124C45.9592 65.6383 45.6536 65.5486 45.3471 65.465C45.3324 65.4994 45.318 65.5347 45.3032 65.5691C45.3458 65.6082 45.3881 65.648 45.4413 65.6973C45.2 65.8624 44.9552 66.0304 44.7102 66.1975C44.7023 66.1494 44.6954 66.101 44.6876 66.0529C44.572 65.9976 44.4606 65.9077 44.3399 65.8931C43.7685 65.8212 43.1948 65.7693 42.6227 65.7102C42.2812 65.6749 41.9384 65.6462 41.5979 65.5975C41.5304 65.5877 41.4731 65.5024 41.3978 65.4413C41.1214 65.8217 40.7387 65.6542 40.3906 65.6678C40.2803 65.6723 40.1702 65.7025 40.061 65.6994C39.9036 65.6943 39.7463 65.6546 39.5892 65.6563C39.3376 65.6592 39.0862 65.6835 38.8343 65.6985L38.7964 65.8744C38.9166 65.9315 39.0314 66.0127 39.1572 66.04C39.422 66.0974 39.6924 66.1349 39.9623 66.1574C40.011 66.1613 40.0694 66.0547 40.1519 65.9693C40.4609 66.3235 40.9644 66.2061 41.4386 66.2192C41.8828 66.2317 42.3474 66.3768 42.7244 65.9295C42.7375 65.9699 42.7503 66.0094 42.7635 66.0498C42.6944 66.1074 42.6247 66.1647 42.5079 66.2627C43.5581 66.3668 44.5524 66.4654 45.5466 66.5639C45.3049 66.7526 45.0582 66.8521 44.7661 66.7289C44.6773 66.6914 44.5699 66.6622 44.4777 66.6754C44.31 66.6998 44.1477 66.7956 44.0132 66.5921C43.9899 66.5565 43.8463 66.5618 43.7849 66.5959C43.4156 66.8023 43.039 66.6613 42.6658 66.6326C42.6343 66.6302 42.6103 66.5384 42.6323 66.5789C42.2726 66.5538 41.9574 66.5071 41.6444 66.5211C41.4996 66.5272 41.3632 66.6609 41.2158 66.7191C41.0666 66.7787 40.8923 66.8825 40.7582 66.8496C40.5039 66.7867 40.2988 66.7774 40.049 66.8997C39.8271 67.0076 39.5498 67.0312 39.2959 67.0368C38.7589 67.0487 38.2211 67.0289 37.6842 67.0104C37.5833 67.0071 37.4857 66.9391 37.3834 66.921C37.1865 66.8859 36.9863 66.8391 36.7878 66.8426C36.0554 66.8557 35.3219 66.8748 34.5909 66.9199C34.3881 66.9325 34.1185 66.8231 33.9875 67.126C33.9687 67.1704 33.7067 67.1599 33.7063 67.1564C33.658 66.7774 33.3279 66.9149 33.1443 66.8923C32.8454 66.8558 32.5335 66.9271 32.1441 66.9599L32.4342 67.1255C32.4326 67.1485 32.43 67.1717 32.4284 67.1946C32.1829 67.187 31.9084 67.2459 31.7002 67.1542C31.4867 67.0602 31.3151 67.0915 31.2079 67.2146C31.0251 67.4254 30.8184 67.3914 30.6385 67.3841C30.6129 67.3037 30.5891 67.1913 30.5762 67.1922C30.3383 67.2144 30.0822 67.1044 29.8684 67.3205C29.6566 67.5346 29.309 67.5328 29.1128 67.3467C28.8206 67.0696 28.637 67.0973 28.491 67.3547C28.0822 67.3262 27.7204 67.2776 27.3599 67.2841C27.1239 67.2885 26.8608 67.126 26.6396 67.3609C26.6249 67.3764 26.49 67.2788 26.4193 67.3306C25.6955 67.3832 24.9721 67.4352 24.2663 67.4865C23.9488 66.9628 23.6655 67.5599 23.3464 67.4838C23.3796 67.4386 23.4115 67.3943 23.445 67.3484C23.424 67.3422 23.3903 67.3262 23.3861 67.3321C23.1526 67.6563 22.792 67.4858 22.4965 67.5673C22.3539 67.6068 22.1875 67.5094 22.0756 67.7632C21.9962 67.9425 21.8384 67.7553 21.8132 67.5821C21.4596 67.5967 21.1108 67.6115 20.7624 67.6257C20.764 67.6604 20.7656 67.695 20.7672 67.7297C20.8329 67.7269 20.9029 67.7093 20.9641 67.7244C21.0401 67.744 21.1088 67.7922 21.1807 67.8275C21.1166 67.8592 21.0474 67.8839 20.9894 67.9249C20.9442 67.9566 20.912 68.0074 20.8857 68.036C20.4544 68.0572 20.0048 68.0845 19.5554 68.0986C19.1962 68.11 18.8527 68.1171 18.4987 67.9439C18.3053 67.8491 17.9988 67.9786 17.7448 68.0146C17.5942 68.0365 17.4454 68.0725 17.296 68.1024C17.288 68.0732 17.281 68.0437 17.2731 68.0144C17.3743 67.9652 17.4755 67.9161 17.6672 67.8222C17.3346 67.764 17.0911 67.7213 16.8168 67.6733C16.9086 68.1619 16.5317 68.0273 16.3483 68.0691C16.0704 68.1327 15.7709 68.0958 15.4826 68.1213C15.1226 68.1528 14.7657 68.2165 14.4048 68.2425C14.224 68.2554 14.0398 68.1979 13.8575 68.2033C13.6794 68.2086 13.503 68.2585 13.3249 68.2811C13.0675 68.3143 12.8107 68.3553 12.5525 68.3684C12.0606 68.3921 11.5675 68.3904 11.0753 68.4147C10.8485 68.426 10.6234 68.4719 10.3843 68.4358C10.5659 68.253 10.9195 68.594 11.0084 68.1963C10.8034 68.2084 10.5936 68.2088 10.3884 68.2414C10.3226 68.2516 10.2784 68.3605 10.2095 68.3977C10.0753 68.4701 9.9307 68.5233 9.78979 68.5844C9.77314 68.5502 9.75588 68.5156 9.73958 68.4808C9.78316 68.439 9.82736 68.3976 9.92055 68.3093C9.71985 68.3009 9.56574 68.2943 9.30695 68.284L9.54067 68.4175C9.54456 68.4452 9.54845 68.4729 9.55208 68.4997C8.96603 68.5659 8.38121 68.6443 7.79445 68.6944C7.19963 68.7458 6.60189 68.7691 5.98067 68.8061C6.3258 68.0691 6.65835 67.3513 6.99781 66.6357C7.14415 66.3276 7.33841 66.0377 7.4464 65.7175C7.53712 65.4492 7.53592 65.1489 7.57482 64.8634C7.57917 64.8313 7.56916 64.7869 7.58749 64.7677C8.18415 64.1316 8.28192 63.2649 8.62191 62.5109C8.84302 62.02 8.94147 61.4746 9.12149 60.9635C9.2682 60.5452 9.36381 60.0509 9.65283 59.7592C9.86666 59.543 9.78237 59.1781 10.1129 59.0483C10.1639 59.0281 10.2857 58.6952 10.21 58.4347C10.1612 58.2669 10.3313 57.946 10.4979 57.8239C10.833 57.5782 10.7368 57.1752 10.9419 56.8907C11.0761 56.7047 11.0811 56.3949 11.2439 56.2681C11.5265 56.0468 11.3971 55.7392 11.5167 55.4923C11.7169 55.0783 11.9377 54.6612 12.0461 54.2194C12.1924 53.6249 12.7315 53.1599 12.5392 52.4502C12.6771 52.482 12.7415 52.4974 12.7661 52.5032C12.7813 52.2996 12.7667 52.0847 12.8199 51.8879C12.8774 51.6763 12.9979 51.4826 13.0997 51.2609C13.1588 51.3086 13.2136 51.3523 13.303 51.4247C13.3048 51.2126 13.3063 51.0489 13.307 50.9785C13.4472 50.8265 13.5697 50.7458 13.6166 50.6335C13.7239 50.3763 13.7394 50.093 13.8998 49.8422C14.0059 49.6765 13.9939 49.4384 14.0555 49.2398C14.2195 48.7121 14.3954 48.188 14.5667 47.662C14.7529 47.091 14.9341 46.5172 15.1291 45.9496C15.1734 45.8202 15.2959 45.7165 15.3323 45.5866C15.4261 45.2509 15.4969 44.9095 15.567 44.5677C15.6403 44.2104 15.7016 43.8512 15.7823 43.4175C15.8567 43.5406 15.8874 43.5919 15.9228 43.6508C16.2251 43.0062 16.4904 42.3644 16.3067 41.6192C16.3372 41.6161 16.3656 41.6068 16.3925 41.6115C16.4252 41.6161 16.4557 41.6319 16.5692 41.672C16.4698 41.4531 16.3982 41.2962 16.3267 41.1394C16.2942 41.1488 16.2607 41.1585 16.2282 41.1679L16.4107 40.8483C16.4748 40.9721 16.5479 41.1118 16.6374 41.2847C17.0071 40.5378 16.8219 39.6989 17.3003 39.0495C17.3597 39.0809 17.4167 39.1134 17.5202 39.1725C17.5932 38.6315 17.6618 38.121 17.7312 37.6109C17.687 37.6046 17.6426 37.599 17.5985 37.5928C17.5496 37.9879 17.5097 38.3847 17.4472 38.7778C17.4311 38.8765 17.346 38.9636 17.2923 39.0564C17.3108 39.0168 17.3499 38.9741 17.3452 38.9377C17.2826 38.483 17.3801 38.0573 17.4721 37.6111C17.5453 37.2554 17.8659 36.9126 17.6469 36.4987C17.6222 36.4526 17.7344 36.3339 17.796 36.2259C17.7883 36.061 17.7781 35.8527 17.7677 35.6435C17.7855 35.6842 17.8031 35.7255 17.8203 35.7658C17.9285 35.765 18.0364 35.7632 18.1445 35.7624C18.1269 35.6881 18.1093 35.6139 18.0913 35.5402C18.0969 35.6858 18.1029 35.8324 18.1085 35.978L18.1559 35.9771C18.3325 35.3842 18.4768 34.7786 18.6985 34.2032C18.8371 33.8437 19.0895 33.5269 19.2991 33.1956C19.3928 33.0475 19.497 32.9037 19.6118 32.7718C19.6962 32.6743 19.806 32.5987 19.9041 32.5132C19.9542 32.5393 20.0042 32.5654 20.0533 32.5917C20.1591 32.0103 20.265 31.4289 20.3714 30.8452C20.3858 30.8559 20.4322 30.8898 20.477 30.9236C20.4907 30.9084 20.4994 30.9002 20.5064 30.891C20.6972 30.6387 20.4407 30.2083 20.8876 30.0273C21.0159 29.9755 21.0246 29.6463 21.1064 29.4527C21.187 29.2626 21.2892 29.0806 21.3864 28.8974C21.4122 28.848 21.4833 28.8055 21.4822 28.7612C21.4723 28.2215 21.9442 28.1017 22.2224 27.8046C22.5024 28.106 22.5515 28.5167 22.3904 28.809C22.3473 28.8873 22.3 28.9903 22.3154 29.0699C22.4122 29.567 22.1968 29.9905 22.0402 30.436C21.9676 30.6423 22.0279 30.8923 21.9715 31.1078C21.8191 31.6972 21.6449 32.2817 21.4636 32.8628C21.3612 33.1903 21.1994 33.5069 21.4388 33.8897C21.5462 33.6424 21.6455 33.4152 21.7508 33.1733C21.7824 33.2431 21.808 33.3005 21.8074 33.2986C22.1773 32.7847 22.5609 32.2524 22.9439 31.7197C22.9742 31.7271 23.0045 31.7346 23.0348 31.742C22.6744 33.0932 22.4406 34.4616 22.3281 35.8465C22.3657 35.854 22.4037 35.8609 22.4413 35.8684C22.6632 34.8751 22.8854 33.8811 23.1137 32.8593C23.3569 33.0336 23.4199 32.9535 23.7357 32.1339C23.8404 32.276 23.9599 32.3648 23.9685 32.4635C23.9968 32.7825 24.0239 33.1107 23.9793 33.4251C23.8138 34.5946 23.6713 35.7715 23.4091 36.9204C23.3111 37.3484 23.2886 37.742 23.3096 38.1631C23.3236 38.4467 23.3347 38.7296 23.1358 38.9945C22.9261 39.274 22.7813 39.5707 22.8922 39.9813C22.9596 40.2288 22.853 40.5769 22.7152 40.8168C22.3246 41.4981 22.1638 42.2103 22.2486 42.9846C22.2555 43.0503 22.2705 43.1205 22.2553 43.1818C22.0739 43.9012 21.8774 44.6169 21.7065 45.3381C21.5076 46.1759 21.3268 47.0182 21.1441 47.8595C21.0848 48.1318 21.0562 48.4108 20.9947 48.6827C20.9489 48.8853 20.8734 49.0809 20.7315 49.2574C20.779 49.0187 20.8265 48.7801 20.8734 48.541C20.831 48.5316 20.7887 48.5223 20.746 48.5136C20.5345 49.2972 20.3309 50.0829 20.1087 50.8638C19.9271 51.5015 19.7523 52.1432 19.5242 52.7644C19.0913 53.9475 18.6119 55.1139 18.1724 56.2941C17.7792 57.3501 17.4019 58.4127 17.0412 59.4807C16.9585 59.7264 16.9725 60.0043 16.9283 60.384C17.8447 59.876 18.7554 60.01 19.622 59.867C20.102 59.788 20.5941 59.7842 21.0759 59.712C21.2168 59.6912 21.3627 59.5753 21.4691 59.4666C21.8993 59.0242 22.3495 58.594 22.727 58.1084C23.1569 57.5556 23.8269 57.1925 24.0272 56.4559C24.065 56.3162 24.1882 56.1998 24.3335 55.9799C24.1788 56.0248 24.0359 56.0519 24.037 56.0673C24.073 56.501 23.6285 56.5797 23.4567 56.8577C23.3762 56.9871 23.2222 57.0711 23.0791 57.1952C23.1052 57.0932 23.1294 56.9976 23.1397 56.9565C22.8571 57.1779 22.5849 57.5121 22.2373 57.6387C21.6125 57.8663 21.2728 58.4484 20.7045 58.7239C20.6759 58.738 20.639 58.7351 20.5596 58.7474C21.9684 57.0112 23.3507 55.3069 24.7333 53.6035C24.7132 53.574 24.6937 53.5447 24.6736 53.5152C24.5869 53.5504 24.4724 53.5624 24.4174 53.6256C23.4034 54.7798 22.396 55.9411 21.3856 57.099C21.3648 57.1225 21.3241 57.1289 21.2579 57.1586C21.297 57.0468 21.3263 56.9639 21.3665 56.8503C21.3114 56.8863 21.2825 56.8994 21.2606 56.9206C20.9502 57.2224 20.6441 57.5282 20.3271 57.8229C20.2836 57.8631 20.1387 57.875 20.1243 57.8512C20.0837 57.7827 20.045 57.6619 20.0784 57.6077C20.5569 56.8415 21.0204 56.0627 21.5442 55.3281C22.0395 54.6332 22.5903 53.9766 23.1403 53.3228C23.4664 52.9345 23.8532 52.5982 24.1847 52.2148C24.7305 51.5841 25.2507 50.9306 25.7883 50.2928C26.064 49.9654 26.2838 49.5947 26.6893 49.3769C27.0312 49.1927 27.3327 48.9295 27.6371 48.6828C27.7403 48.5985 27.787 48.449 27.8767 48.3439C28.0258 48.169 28.1877 48.0063 28.3451 47.8386C28.4271 47.7512 28.5096 47.6642 28.5934 47.5779C28.6731 47.4959 28.7454 47.4038 28.8361 47.3371C29.4187 46.9085 30.0039 46.4838 30.5902 46.0615C31.0823 45.7063 31.4836 45.2712 31.7749 44.7364C31.7902 44.7097 31.8339 44.6993 31.8629 44.6788C32.7174 44.0763 33.5798 43.4856 34.4242 42.8691C35.6598 41.9673 36.8712 41.0319 38.1155 40.1425C38.703 39.7225 39.3392 39.3697 39.9593 38.9963C40.1158 38.9021 40.2951 38.8457 40.5011 38.8448C40.1508 39.048 39.8015 39.251 39.4512 39.4543C39.4691 39.4892 39.488 39.5238 39.5059 39.5587C39.8073 39.4123 40.1119 39.2718 40.4089 39.1172C41.175 38.7184 41.9359 38.3085 42.7035 37.9114C43.5053 37.4961 44.3021 37.0679 45.1211 36.6887C45.7589 36.3937 46.4253 36.1594 47.0837 35.909C47.7773 35.6442 48.4677 35.3651 49.1741 35.1414C50.0667 34.8593 50.9732 34.6205 51.877 34.3736C53.3195 33.9792 54.7573 33.5615 56.21 33.2083C63.8614 31.3461 71.6071 30.6174 79.4669 31.2885C82.287 31.5292 85.0995 31.8379 87.8694 32.4301C89.5287 32.7848 91.1775 33.1953 92.8183 33.6285C94.0119 33.9437 95.2097 34.2703 96.3609 34.7087C98.2979 35.4466 100.218 36.2365 102.109 37.0827C103.626 37.7609 105.099 38.5394 106.575 39.3046C107.395 39.7294 108.208 40.1809 108.98 40.6868C110.135 41.4435 111.258 42.2499 112.383 43.0532C113.2 43.6374 114.012 44.2326 114.799 44.8564C115.507 45.4177 116.206 45.9962 116.855 46.6227C117.302 47.0543 117.765 47.4697 118.217 47.8951C118.66 48.3113 119.168 48.6773 119.526 49.1571C119.862 49.6085 120.307 49.915 120.636 50.2249C120.626 50.3617 120.592 50.4491 120.621 50.4846C120.925 50.8497 121.219 51.2268 121.556 51.5598C121.915 51.9154 122.328 52.2155 122.695 52.5639C122.831 52.6922 122.902 52.8878 123.002 53.0527C123.02 53.0828 123.033 53.1164 123.055 53.1435C123.552 53.7765 124.045 54.4135 124.55 55.0408C124.863 55.4304 125.195 55.8047 125.587 56.2675L125.282 56.093C125.269 56.1054 125.256 56.1178 125.243 56.1303C125.474 56.4581 125.693 56.7974 125.941 57.1115C126.19 57.4256 126.529 57.6765 126.575 58.1184C126.58 58.1606 126.614 58.2098 126.649 58.2373C126.968 58.4842 126.972 58.8653 127.068 59.2072L127.077 59.2041L127.07 59.2057ZM121.526 60.1483C121.364 59.9372 121.203 59.7264 120.997 59.4582C120.944 59.9689 121.234 60.0622 121.539 60.1438C121.507 60.1991 121.436 60.2809 121.452 60.3068C121.688 60.6791 121.925 61.0504 122.188 61.4031C122.241 61.4745 122.402 61.4647 122.535 61.4976C122.334 60.8927 121.975 60.4864 121.527 60.148L121.526 60.1483ZM37.7988 65.6118C36.9333 65.4115 36.0633 65.7822 35.1902 65.3216C35.4713 65.3101 35.6758 65.3018 35.8794 65.2937C35.5156 65.1519 35.1644 65.0962 34.8815 65.4218C34.8452 65.4637 34.7934 65.5098 34.743 65.5189C34.3581 65.5855 33.9714 65.6438 33.5855 65.7049C33.5893 65.7342 33.5922 65.7638 33.596 65.7931C33.9523 65.804 34.3082 65.8155 34.6636 65.825C34.8134 65.829 34.9627 65.8295 35.112 65.8316C35.5092 65.837 35.9181 65.7874 36.299 65.8674C36.5146 65.9131 36.6762 65.928 36.8979 65.8925C37.1448 65.8532 37.4634 65.6392 37.7189 65.9892C37.7816 66.0752 38.072 66.0188 38.2509 65.9876C38.3613 65.9683 38.513 65.7949 38.5542 65.8234C38.8575 66.0352 38.6666 65.6826 38.7746 65.6908C38.7735 65.6581 38.7728 65.6248 38.7718 65.5921C38.4412 65.4972 38.1105 65.4013 37.7396 65.295C37.7661 65.4401 37.7767 65.4964 37.7974 65.6127L37.7988 65.6118ZM20.4051 60.8366C19.0506 60.9644 17.7512 60.9929 16.5003 61.3683C17.7614 61.253 19.0191 61.116 20.2772 60.9742C20.3097 60.9706 20.3369 60.9129 20.4057 60.837L20.4051 60.8366ZM46.446 64.4876C46.4498 64.5268 46.4541 64.5655 46.458 64.6047C46.5869 64.5935 46.7166 64.5721 46.8455 64.5725C47.1461 64.5729 47.4472 64.5926 47.7474 64.5821C47.8189 64.5793 47.8877 64.4919 47.9576 64.4429C47.9001 64.3853 47.8518 64.31 47.7825 64.2746C47.7137 64.2395 47.6195 64.2202 47.5447 64.236C47.1766 64.3122 46.8111 64.4023 46.4453 64.4872L46.446 64.4876ZM118.343 57.5481C118.289 57.5538 118.235 57.5592 118.182 57.5649C118.198 57.7261 118.155 57.9382 118.242 58.0364C118.375 58.1861 118.596 58.258 118.78 58.3631C118.792 58.3315 118.806 58.2996 118.818 58.2679C118.66 58.0285 118.501 57.7885 118.343 57.5491L118.343 57.5481ZM120.439 60.093C120.462 60.0689 120.484 60.0455 120.507 60.0215C120.252 59.6945 119.997 59.3679 119.741 59.041C119.716 59.0604 119.691 59.0805 119.665 59.0996C119.888 59.4568 119.997 59.9008 120.439 60.0926L120.439 60.093ZM25.6492 57.3885C25.6299 57.3619 25.61 57.3349 25.5907 57.3082C25.2345 57.3748 24.7936 57.9139 24.9182 58.0772C25.1588 57.8501 25.4042 57.619 25.6495 57.3879L25.6492 57.3885ZM120.381 55.1145C120.153 54.5465 119.88 54.298 119.517 54.3258C119.803 54.5872 120.064 54.8262 120.381 55.1145ZM44.3441 65.3976C44.5906 65.6887 44.8177 65.73 45.0254 65.5216C44.7813 65.4769 44.5626 65.4368 44.3441 65.3976ZM120.282 55.2378C120.58 55.5222 120.843 55.7718 121.105 56.0217C121.132 55.9912 121.159 55.9607 121.187 55.9295C120.832 55.7827 120.842 55.2213 120.282 55.2378ZM43.1501 62.2826C43.1591 62.3173 43.1677 62.3527 43.1766 62.3874L43.9886 62.2379C43.9751 62.1824 43.9609 62.1266 43.947 62.0717C43.6815 62.1423 43.4153 62.2126 43.1498 62.2832L43.1501 62.2826ZM45.7492 65.2213C45.7526 65.2586 45.7559 65.2959 45.7589 65.3339C46.0128 65.3068 46.2851 65.5857 46.5886 65.1952C46.2621 65.2055 46.0055 65.213 45.7486 65.221L45.7492 65.2213ZM85.2156 39.8142C85.5006 39.8708 85.7919 39.9277 86.0836 39.9855C85.6237 39.7477 85.3344 39.6906 85.2156 39.8142ZM112.154 43.9169L112.906 44.3462C112.726 44.0102 112.556 43.7692 112.154 43.9169Z" fill="#FFED00"/>
<path d="M51.686 60.9565C51.69 60.8963 51.6936 60.8366 51.697 60.776C51.7434 60.7293 51.7848 60.6525 51.8385 60.642C51.9826 60.614 52.132 60.6145 52.3506 60.5986C52.3343 60.6675 52.3308 60.8638 52.2776 60.8778C52.0885 60.9296 51.9115 61.1922 51.6854 60.9562L51.686 60.9565Z" fill="#FFED00"/>
<path d="M129.936 68.9997C130.385 69.3587 130.415 69.9389 130.618 70.4326C130.141 70.0888 130.341 69.3915 129.936 68.9997Z" fill="#FFED00"/>
<path d="M123.472 59.4876C123.727 59.8328 123.982 60.1767 124.258 60.5489C123.96 60.4975 123.504 59.8852 123.443 59.5075C123.442 59.501 123.47 59.4898 123.472 59.4886L123.472 59.4876Z" fill="#FFED00"/>
<path d="M54.014 61.1967C54.4462 60.9004 54.8371 61.163 55.1986 61.041C55.2001 61.093 55.202 61.1459 55.2036 61.1978C54.8355 61.1975 54.4674 61.1972 54.014 61.1967Z" fill="#FFED00"/>
<path d="M16.9557 38.9324C16.9476 38.5838 16.9389 38.2348 16.9308 37.8862C16.9628 37.8848 16.9949 37.8833 17.0273 37.8812C17.0492 38.2287 17.0718 38.5765 17.0937 38.924C17.0478 38.9266 17.002 38.9292 16.9561 38.9318L16.9557 38.9324Z" fill="#FFED00"/>
<path d="M127.061 59.2086C127.246 59.4175 127.438 59.6216 127.613 59.8385C127.652 59.8871 127.634 59.9817 127.641 60.0545C127.573 60.0181 127.475 59.998 127.443 59.9412C127.308 59.7018 127.193 59.451 127.07 59.205L127.061 59.208L127.061 59.2086Z" fill="#FFED00"/>
<path d="M124.302 60.8595C124.607 61.0986 124.77 61.4429 124.891 61.8198C124.668 61.526 124.444 61.2328 124.22 60.9386C124.247 60.9122 124.274 60.8859 124.301 60.8592L124.302 60.8595Z" fill="#FFED00"/>
<path d="M32.0395 53.1612L32.5125 52.3327C32.5528 52.3441 32.5937 52.356 32.634 52.3675C32.6058 52.4888 32.614 52.6416 32.5418 52.7263C32.4056 52.8856 32.224 53.0065 32.0395 53.1612Z" fill="#FFED00"/>
<path d="M87.8043 40.743C88.0906 40.8003 88.3762 40.8572 88.6625 40.9145C88.6545 40.9601 88.6475 41.0055 88.6395 41.0511C88.3294 40.991 88.0184 40.9311 87.627 40.8549C87.7422 40.7857 87.7799 40.7628 87.8173 40.7405L87.8043 40.743Z" fill="#FFED00"/>
</g>
<defs>
<clipPath id="clip0_81_147826">
<rect width="115.545" height="75.5271" fill="white" transform="translate(100.677 122.877) rotate(-150.278)"/>
</clipPath>
</defs>
</svg>
